<?xml version="1.0" encoding="UTF-8" standalone="no"?>
<!-- Created with Inkscape (http://www.inkscape.org/) -->

<svg
   xmlns:dc="http://purl.org/dc/elements/1.1/"
   xmlns:cc="http://creativecommons.org/ns#"
   xmlns:rdf="http://www.w3.org/1999/02/22-rdf-syntax-ns#"
   xmlns:svg="http://www.w3.org/2000/svg"
   xmlns="http://www.w3.org/2000/svg"
   xmlns:xlink="http://www.w3.org/1999/xlink"
   xmlns:sodipodi="http://sodipodi.sourceforge.net/DTD/sodipodi-0.dtd"
   xmlns:inkscape="http://www.inkscape.org/namespaces/inkscape"
   width="31.409353mm"
   height="31.93852mm"
   viewBox="0 0 111.29298 113.16798"
   id="svg2"
   version="1.1"
   inkscape:version="0.91 r13725"
   sodipodi:docname="Krokodil-lineart.svg">
  <title
     id="title4136">crocodile - lineart</title>
  <defs
     id="defs4">
    <pattern
       inkscape:collect="always"
       xlink:href="#Polkadots-large"
       id="pattern5942"
       patternTransform="matrix(1.075,0,0,1.075,0.0784271,946.44466)" />
    <pattern
       inkscape:stockid="Polka dots, large"
       id="Polkadots-large"
       patternTransform="translate(0,0) scale(10,10)"
       height="10"
       width="10"
       patternUnits="userSpaceOnUse"
       inkscape:collect="always">
      <circle
         id="circle5632"
         r="0.45"
         cy="0.810"
         cx="2.567"
         style="fill:black;stroke:none" />
      <circle
         id="circle5634"
         r="0.45"
         cy="2.33"
         cx="3.048"
         style="fill:black;stroke:none" />
      <circle
         id="circle5636"
         r="0.45"
         cy="2.415"
         cx="4.418"
         style="fill:black;stroke:none" />
      <circle
         id="circle5638"
         r="0.45"
         cy="3.029"
         cx="1.844"
         style="fill:black;stroke:none" />
      <circle
         id="circle5640"
         r="0.45"
         cy="1.363"
         cx="6.08"
         style="fill:black;stroke:none" />
      <circle
         id="circle5642"
         r="0.45"
         cy="4.413"
         cx="5.819"
         style="fill:black;stroke:none" />
      <circle
         id="circle5644"
         r="0.45"
         cy="4.048"
         cx="4.305"
         style="fill:black;stroke:none" />
      <circle
         id="circle5646"
         r="0.45"
         cy="3.045"
         cx="5.541"
         style="fill:black;stroke:none" />
      <circle
         id="circle5648"
         r="0.45"
         cy="5.527"
         cx="4.785"
         style="fill:black;stroke:none" />
      <circle
         id="circle5650"
         r="0.45"
         cy="5.184"
         cx="2.667"
         style="fill:black;stroke:none" />
      <circle
         id="circle5652"
         r="0.45"
         cy="1.448"
         cx="7.965"
         style="fill:black;stroke:none" />
      <circle
         id="circle5654"
         r="0.45"
         cy="5.049"
         cx="7.047"
         style="fill:black;stroke:none" />
      <circle
         id="circle5656"
         r="0.45"
         cy="0.895"
         cx="4.340"
         style="fill:black;stroke:none" />
      <circle
         id="circle5658"
         r="0.45"
         cy="0.340"
         cx="7.125"
         style="fill:black;stroke:none" />
      <circle
         id="circle5660"
         r="0.45"
         cy="1.049"
         cx="9.553"
         style="fill:black;stroke:none" />
      <circle
         id="circle5662"
         r="0.45"
         cy="2.689"
         cx="7.006"
         style="fill:black;stroke:none" />
      <circle
         id="circle5664"
         r="0.45"
         cy="2.689"
         cx="8.909"
         style="fill:black;stroke:none" />
      <circle
         id="circle5666"
         r="0.45"
         cy="4.407"
         cx="9.315"
         style="fill:black;stroke:none" />
      <circle
         id="circle5668"
         r="0.45"
         cy="3.870"
         cx="7.820"
         style="fill:black;stroke:none" />
      <circle
         id="circle5670"
         r="0.45"
         cy="5.948"
         cx="8.270"
         style="fill:black;stroke:none" />
      <circle
         id="circle5672"
         r="0.45"
         cy="7.428"
         cx="7.973"
         style="fill:black;stroke:none" />
      <circle
         id="circle5674"
         r="0.45"
         cy="8.072"
         cx="9.342"
         style="fill:black;stroke:none" />
      <circle
         id="circle5676"
         r="0.45"
         cy="9.315"
         cx="8.206"
         style="fill:black;stroke:none" />
      <circle
         id="circle5678"
         r="0.45"
         cy="9.475"
         cx="9.682"
         style="fill:black;stroke:none" />
      <circle
         id="circle5680"
         r="0.45"
         cy="6.186"
         cx="9.688"
         style="fill:black;stroke:none" />
      <circle
         id="circle5682"
         r="0.45"
         cy="6.296"
         cx="3.379"
         style="fill:black;stroke:none" />
      <circle
         id="circle5684"
         r="0.45"
         cy="8.204"
         cx="2.871"
         style="fill:black;stroke:none" />
      <circle
         id="circle5686"
         r="0.45"
         cy="8.719"
         cx="4.59"
         style="fill:black;stroke:none" />
      <circle
         id="circle5688"
         r="0.45"
         cy="9.671"
         cx="3.181"
         style="fill:black;stroke:none" />
      <circle
         id="circle5690"
         r="0.45"
         cy="7.315"
         cx="5.734"
         style="fill:black;stroke:none" />
      <circle
         id="circle5692"
         r="0.45"
         cy="6.513"
         cx="6.707"
         style="fill:black;stroke:none" />
      <circle
         id="circle5694"
         r="0.45"
         cy="9.670"
         cx="5.730"
         style="fill:black;stroke:none" />
      <circle
         id="circle5696"
         r="0.45"
         cy="8.373"
         cx="6.535"
         style="fill:black;stroke:none" />
      <circle
         id="circle5698"
         r="0.45"
         cy="7.154"
         cx="4.37"
         style="fill:black;stroke:none" />
      <circle
         id="circle5700"
         r="0.45"
         cy="7.25"
         cx="0.622"
         style="fill:black;stroke:none" />
      <circle
         id="circle5702"
         r="0.45"
         cy="5.679"
         cx="0.831"
         style="fill:black;stroke:none" />
      <circle
         id="circle5704"
         r="0.45"
         cy="8.519"
         cx="1.257"
         style="fill:black;stroke:none" />
      <circle
         id="circle5706"
         r="0.45"
         cy="6.877"
         cx="1.989"
         style="fill:black;stroke:none" />
      <circle
         id="circle5708"
         r="0.45"
         cy="3.181"
         cx="0.374"
         style="fill:black;stroke:none" />
      <circle
         id="circle5710"
         r="0.45"
         cy="1.664"
         cx="1.166"
         style="fill:black;stroke:none" />
      <circle
         id="circle5712"
         r="0.45"
         cy="0.093"
         cx="1.151"
         style="fill:black;stroke:none" />
      <circle
         id="circle5714"
         r="0.45"
         cy="10.093"
         cx="1.151"
         style="fill:black;stroke:none" />
      <circle
         id="circle5716"
         r="0.45"
         cy="4.451"
         cx="1.302"
         style="fill:black;stroke:none" />
      <circle
         id="circle5718"
         r="0.45"
         cy="3.763"
         cx="3.047"
         style="fill:black;stroke:none" />
    </pattern>
  </defs>
  <sodipodi:namedview
     id="base"
     pagecolor="#ffffff"
     bordercolor="#666666"
     borderopacity="1.0"
     inkscape:pageopacity="0.0"
     inkscape:pageshadow="2"
     inkscape:zoom="4"
     inkscape:cx="60.877191"
     inkscape:cy="68.203726"
     inkscape:document-units="mm"
     inkscape:current-layer="layer1"
     showgrid="false"
     inkscape:window-width="1655"
     inkscape:window-height="1132"
     inkscape:window-x="712"
     inkscape:window-y="33"
     inkscape:window-maximized="0"
     inkscape:snap-global="false"
     showguides="false"
     fit-margin-top="1"
     fit-margin-right="1"
     fit-margin-bottom="1"
     fit-margin-left="1" />
  <metadata
     id="metadata7">
    <rdf:RDF>
      <cc:Work
         rdf:about="">
        <dc:format>image/svg+xml</dc:format>
        <dc:type
           rdf:resource="http://purl.org/dc/dcmitype/StillImage" />
        <dc:title>crocodile - lineart</dc:title>
        <dc:subject>
          <rdf:Bag>
            <rdf:li>crocodile</rdf:li>
            <rdf:li>lizard</rdf:li>
            <rdf:li>animal</rdf:li>
            <rdf:li>krokodil</rdf:li>
            <rdf:li>echse</rdf:li>
            <rdf:li>tier</rdf:li>
            <rdf:li>line art</rdf:li>
            <rdf:li>outline</rdf:li>
          </rdf:Bag>
        </dc:subject>
        <dc:date>2015-03-10</dc:date>
        <dc:creator>
          <cc:Agent>
            <dc:title>Frank Tremmel</dc:title>
          </cc:Agent>
        </dc:creator>
        <dc:description>line art crocodile</dc:description>
        <cc:license
           rdf:resource="http://creativecommons.org/publicdomain/zero/1.0/" />
      </cc:Work>
      <cc:License
         rdf:about="http://creativecommons.org/publicdomain/zero/1.0/">
        <cc:permits
           rdf:resource="http://creativecommons.org/ns#Reproduction" />
        <cc:permits
           rdf:resource="http://creativecommons.org/ns#Distribution" />
        <cc:permits
           rdf:resource="http://creativecommons.org/ns#DerivativeWorks" />
      </cc:License>
    </rdf:RDF>
  </metadata>
  <g
     inkscape:label="Ebene 1"
     inkscape:groupmode="layer"
     id="layer1"
     transform="translate(2.5041937,-942.89842)"
     style="display:inline">
    <path
       style="fill:#ffffff;fill-opacity:1;fill-rule:evenodd;stroke:#ff0000;stroke-width:0.38574067;stroke-linecap:butt;stroke-linejoin:miter;stroke-miterlimit:4;stroke-dasharray:none;stroke-opacity:1"
       d="m 30.600101,1005.5096 c 0.224261,0.6219 -1.265932,1.5868 -1.90513,2.3814 -1.48063,-0.2657 -3.419502,-0.073 -5.239108,0 -1.648212,-0.5248 -2.201923,0.4826 -2.993777,1.1567 l 2.245333,0.6123 c -2.336558,0.5896 -3.855117,1.361 -4.558705,2.3134 l 4.762826,-0.3402 c -1.724463,1.2087 -2.240046,2.0721 -2.721615,2.9257 1.793571,-0.2365 3.48641,-1.1783 5.443229,-0.2721 l -7.960723,7.4164 c -2.457039,1.7161 -3.847101,3.2189 -5.443229,4.7628 -0.782344,0.4993 -1.188927,1.7499 -1.428848,3.334 1.042082,1.5474 1.342644,3.1772 3.878301,4.5587 3.577774,0.4538 7.074486,2.529 10.818419,-0.3402 2.51424,-0.3183 3.377297,-1.0495 7.824642,-0.8845 4.193548,0.6713 8.575373,0.213 13.131791,-1.2928 1.943092,-1.0522 4.001865,-3.0297 5.783431,-2.7897 l 7.756602,0.2042 c 4.101585,-1.3208 7.093654,-4.3057 10.138015,-7.2123 1.751878,-0.3413 1.041683,1.2519 7.4164,-2.7216 0.505129,0.095 1.185914,-0.3372 1.360808,0.7484 0.200974,0.8747 -2.037119,2.9691 -3.129857,4.4907 -0.133857,2.9609 -0.235641,5.9378 -1.428848,8.3689 l -5.375189,4.6948 c -0.872395,1.5344 -1.766905,3.0522 -1.224727,5.6474 1.910608,-0.996 2.307429,-1.5222 3.875379,-1.7753 2.016295,-0.3255 4.156746,-2.0748 4.901829,-1.7628 -0.21714,2.5986 -0.592128,5.3549 -0.476283,7.6205 l 1.292767,4.0144 c 1.584283,-1.8244 3.346892,-3.1138 4.422624,-6.4639 0.330625,-1.1535 0.111018,-2.1236 1.428848,-3.6061 1.519568,-0.1045 3.039137,1.6909 4.558705,2.7216 0.656623,1.6784 2.679521,3.3566 4.354583,5.035 0.389417,-1.3622 0.891895,-2.6341 0.408243,-4.6948 l -0.476283,-2.1092 2.517494,0.4082 2.381411,1.2928 c -0.812078,-2.2453 -1.660062,-4.4907 -3.538098,-6.736 l 1.76905,-0.4083 3.129858,1.1567 c 0.10089,-1.2773 -1.514591,-2.7692 -2.789656,-4.2185 l -4.490665,-2.0412 -2.109251,-2.1092 c 1.96508,-2.6408 3.540026,-1.3801 5.987552,-8.8453 0.404181,-4.4726 1.104701,-9.0193 -1.292767,-12.7916 l -5.307148,-4.5587 4.422624,-5.17097 c 0.989555,-1.27229 0.887975,-3.41744 1.020605,-5.37523 0.20658,0.48946 0.73391,1.2195 2.381413,2.78965 l 0.816483,-3.94634 c 0.85056,1.06586 1.62091,2.29213 2.99378,2.31337 0.701061,-0.50888 0.584991,-1.97109 0.204121,-3.74222 l -0.680401,-1.63297 c 0.818821,0.20484 1.955271,0.50742 5.103021,1.42885 -0.9072,-1.45152 -0.89375,-2.37906 -2.72161,-4.01438 -1.83784,-0.56924 -3.686351,-1.51071 -5.171071,-1.02061 l 0.81648,-5.37518 c -0.13215,-1.4226 -1.172917,-2.54233 -2.381408,-3.60614 -1.865341,-0.42406 -3.922576,-0.41636 -5.103028,-2.38142 1.276071,-2.10065 0.03758,-4.95567 -0.340202,-7.55248 -0.37541,-1.65435 -0.513894,-5.87863 -2.993776,-8.98133 l -2.517494,-0.27216 c 0.164889,-1.15093 0.123625,-2.34308 -0.612363,-3.67418 -0.714736,-0.97211 -1.628378,0.0448 -2.517494,0.81649 -0.54971,-1.5342 0.277241,-2.70207 -2.381413,-3.26594 l -2.857695,2.04121 c -0.154274,-1.45452 -0.356575,-2.87702 -2.109252,-3.26594 -0.931862,-0.051 -1.38881,1.80352 -2.313372,1.90513 -0.700398,-1.25086 -1.150865,-2.82305 -3.061817,-2.51749 l -1.088646,2.38141 -3.81026,-2.31337 -1.360808,2.44945 c -1.379035,-1.81116 -2.986337,-3.55793 -4.898906,-3.94634 0.02401,1.36081 0.09416,2.72162 -0.408242,4.08242 -2.818482,-1.41309 -2.993776,-3.33291 -4.490665,-3.06181 0.07207,1.93587 -0.0763,3.0226 -0.544323,3.8783 -1.321343,-1.71439 -2.682031,-3.12098 -3.878301,-3.40202 0.707761,2.0193 0.19359,2.99123 -0.340201,3.94634 -1.264639,-1.51235 -2.709021,-1.76649 -4.150463,-2.04121 0.2662,1.39582 0.586689,2.78259 -0.204121,4.35458 -0.994566,-1.76176 -2.561424,-2.18819 -4.082422,-2.72161 l -1.701009,-0.068 c 1.66359,1.72368 2.707032,3.44738 2.381413,5.17107 l -2.789655,-2.65358 c -2.37688,-0.58741 -3.010639,-0.30327 -4.422624,-0.40824 l 2.585534,3.94634 -4.694786,-1.70101 -1.769049,-0.13608 1.90513,3.74222 c -3.583044,-1.30082 -4.269385,-1.28497 -6.055593,-1.76905 l 1.632969,4.15046 -6.872077,-2.10925 1.701009,4.28655 c -4.576135,-1.61204 -4.362134,-1.85545 -5.375189,-2.44946 l 0.544323,3.8783 c -1.723689,-1.31887 -3.447379,-2.21792 -5.171068,-2.44945 L 9.7117085,966.72664 5.697327,964.75346 4.7447618,967.339 1.8713867,967.16347 c 8.33e-4,1.63594 0.3904766,2.99971 2.3500533,4.63565 l 8.58041,2.00418 6.735653,2.11692 10.969492,-0.96223 8.467678,-6.73566 7.120547,-1.53958 7.120547,-1.73202 9.622362,-0.3849 c 1.588581,0.50962 3.359395,0.29032 4.618733,2.11692 l -1.154684,2.30937 -2.309366,1.34713 -4.81118,-1.53958 c -1.969727,0.25604 -3.453041,0.99848 -4.515672,2.16161 -1.058402,1.26809 -1.871859,2.53617 -2.027534,3.80425 -3.419124,2.04155 -4.857345,3.88501 -6.531532,5.75207 -2.707937,3.53531 -4.3026,7.07064 -5.015302,10.60595 l -4.618733,0.19245 -3.656498,3.65649 -6.543205,1.53958 c -0.818383,-1.32502 -2.743586,-2.51169 -5.003627,-3.6565 -1.939749,-1.06894 -3.567751,-0.73504 -5.14938,-0.19245 l -3.318299,2.69427 c -1.581689,0.12977 -2.602793,1.52085 -3.4640485,3.27154 -0.507322,1.0035 -2.8694673,1.1414 -0.962237,3.27157 1.7032805,0.7266 1.9642295,2.0079 5.7734165,1.9245 1.631243,0.9148 3.519512,1.7127 7.120548,1.732 l 3.079155,0.3849 c -0.06542,-1.2314 1.625746,-1.8772 3.134378,-2.5839 1.133055,0.5605 2.953722,-0.025 3.117039,2.1516 z"
       id="path4414"
       inkscape:connector-curvature="0"
       sodipodi:nodetypes="cccccccccccccccccccccccccsccccccccccccccccccccccccccccccccccccccccccccccccccccccccccccccccccccccccccccccccccccccccccccccccccccccc" />
    <g
       id="g4452"
       style="fill:url(#pattern5942);fill-opacity:1;stroke:none">
      <path
         sodipodi:nodetypes="cccsccccscccccccccccccc"
         inkscape:connector-curvature="0"
         id="path4432"
         d="m 52.375,1017.6122 c 2.471755,-0.6805 3.749841,-2.9127 4.5625,-5.75 4.3125,4.0848 7.8125,8.5378 12.9375,5.75 0.550259,-0.7394 1.330586,-1.3449 1.578619,-2.2095 0.395949,-1.3803 0.112835,-2.9373 0.483881,-3.103 -0.126461,0.7484 0.890022,3.2812 1.31578,3.7094 2.339765,-0.741 6.539368,-0.01 8.034289,0.9874 -0.810348,1.0719 -0.979807,2.0495 -1.850072,2.5532 -0.879775,-0.347 -2.972685,-0.2302 -4.805627,1.0825 -1.958985,1.4029 -3.287691,1.4497 -4.256873,1.23 -3.216821,3.49 -6.554852,5.6466 -9.9375,7.3125 l -8.0625,-0.3125 -6.0625,2.875 -10.1875,1.875 -4.875,-0.625 c -0.21755,-0.7311 1.261442,-1.745 1.9375,-2.625 l 1.9375,-0.375 2.25,-1.875 3.625,-0.5 c 1.958333,-0.3498 4.229167,-1.1296 6.25,-3.0625 l 1,-2.0625 c 0.805976,-0.2904 1.717464,-0.2643 2.375,-1 0.663926,-0.8887 1.252704,-2.1531 1.750003,-3.875 z"
         style="fill:url(#pattern5942);fill-opacity:1;fill-rule:evenodd;stroke:none;stroke-width:0.35433072;stroke-linecap:butt;stroke-linejoin:miter;stroke-miterlimit:4;stroke-dasharray:none;stroke-opacity:1" />
      <path
         sodipodi:nodetypes="ccccccccccccccccc"
         inkscape:connector-curvature="0"
         id="path4434"
         d="m 17.625,1028.6122 c 0.914527,-1.8446 1.952926,-3.6979 5.125,-6.1875 l 7.8125,-5.625 c 1.461629,-0.9718 1.604961,-1.6303 4.25,-2.75 0.968897,-1.1326 0.854199,-4.8958 1.125,-7.25 3.008427,0.099 4.287193,-0.7449 5.5,-1.625 2.92191,1.0001 5.640195,1.4572 8.0625,1.125 l 0.625,2.9375 -1.4375,3.625 -3.6875,4.875 c -4.0648,1.3513 -4.739453,3.3009 -6.125,5.125 l -2.5,1.375 c -2.795045,-0.8987 -4.181031,0.4923 -5.6875,1.6875 l -2.25,0.125 c -1.363056,0.1786 -2.677921,0.4054 -3.875,0.75 -0.405983,1.3189 -1.071047,2.4824 -3.125,2.8125 -1.659068,0.5402 -2.815889,-0.05 -3.8125,-1 z"
         style="fill:url(#pattern5942);fill-opacity:1;fill-rule:evenodd;stroke:none;stroke-width:0.35433072;stroke-linecap:butt;stroke-linejoin:miter;stroke-miterlimit:4;stroke-dasharray:none;stroke-opacity:1" />
      <path
         sodipodi:nodetypes="ccccccccccc"
         inkscape:connector-curvature="0"
         id="path4436"
         d="m 31.289475,1005.0744 -2.563262,2.5633 -5.833631,0.088 c -2.172611,0.5303 -2.001105,1.0607 -2.916815,1.591 1.671633,-0.066 2.641142,0.1017 3.623922,0.2651 -2.020942,0.5139 -4.121,0.5531 -5.922019,2.3865 l 5.480077,-0.4419 c -1.106763,0.9745 -2.825245,1.4903 -3.093592,3.0936 3.089149,-0.7987 4.41681,-0.5405 6.452349,-0.7071 2.061461,-0.8411 3.741911,-2.2537 4.861359,-4.5078 z"
         style="fill:url(#pattern5942);fill-opacity:1;fill-rule:evenodd;stroke:none;stroke-width:0.35433072;stroke-linecap:butt;stroke-linejoin:miter;stroke-miterlimit:4;stroke-dasharray:none;stroke-opacity:1" />
      <path
         sodipodi:nodetypes="ccccccccccc"
         inkscape:connector-curvature="0"
         id="path4438"
         d="m 76.375,1002.4872 c 2.841255,-1.1221 4.444791,-0.8298 8.75,-3.625 1.874357,-1.24381 3.357338,-2.86319 4.529029,-4.92678 l 0.132583,-5.03033 c 0.599314,-1.22472 1.147269,-2.44945 1.051776,-3.67417 L 93.125,989.7372 c 0.125,2.08333 -0.0305,4.72767 0.375,6.25 -0.543968,1.88844 -1.244784,3.5573 -2.375,4.625 -0.84647,1.2873 -1.974815,2.0108 -3.044194,2.8523 L 81.875,1002.1122 c -2.7105,-0.3623 -3.729641,0.215 -5.5,0.375 z"
         style="fill:url(#pattern5942);fill-opacity:1;fill-rule:evenodd;stroke:none;stroke-width:0.35433072;stroke-linecap:butt;stroke-linejoin:miter;stroke-miterlimit:4;stroke-dasharray:none;stroke-opacity:1" />
      <path
         sodipodi:nodetypes="ccccccccc"
         inkscape:connector-curvature="0"
         id="path4442"
         d="m 55.507883,964.23902 c 4.596194,-2.26864 11.834721,-0.40165 14.4073,-6.18719 1.388554,-1.11027 1.51611,0.55365 1.767767,1.94455 l -1.414213,3.71231 0,1.5026 c -0.909119,1.47321 -1.813241,2.9639 -3.181981,2.82843 0.05529,-0.67946 1.025749,-0.90134 -0.176777,-2.20971 -2.840679,-1.62483 -4.782137,-1.63106 -6.452349,-1.14905 z"
         style="fill:url(#pattern5942);fill-opacity:1;fill-rule:evenodd;stroke:none;stroke-width:0.35433072;stroke-linecap:butt;stroke-linejoin:miter;stroke-miterlimit:4;stroke-dasharray:none;stroke-opacity:1" />
      <path
         sodipodi:nodetypes="ccccccccccccccccccccccccccccc"
         inkscape:connector-curvature="0"
         id="path4444"
         d="m 43.221902,955.3118 c 0.580895,-0.50903 1.152622,-1.05931 1.502602,-2.60746 1.071849,-0.42423 1.885618,0.44194 2.828427,0.66291 0.635126,-0.39607 1.42386,-0.63853 1.502602,-1.59099 1.457666,0.036 1.831575,0.93891 2.740039,1.41422 0.638594,-0.84178 1.206416,-0.88086 1.325825,-2.51908 1.237437,-0.30146 2.474874,1.03022 3.712311,1.5468 0.677644,-0.69301 1.134317,-0.81281 1.811961,-2.34228 1.64098,0.18426 2.327783,1.56124 3.49134,2.34228 0.659191,-0.21089 1.264004,-0.48975 1.458407,-1.28162 0.719768,-0.76596 2.386485,0.67764 3.579728,1.01646 1.001352,-0.0721 1.996595,-0.14793 2.077127,-0.7955 0.124011,-0.71492 1.620453,0.76603 2.430679,1.14905 1.865931,-1.84617 2.487643,0.66242 3.712311,1.06066 2.762781,0.79545 1.839471,1.44499 -0.469986,2.53814 -1.831395,0.33195 -1.273607,3.62737 -4.530014,1.80546 -1.139415,0.94756 -1.558308,-1.23588 -2.601398,-2.39905 l -1.149049,1.32582 c -1.297589,-0.95508 -2.700437,-2.96275 -3.889087,-2.82843 l -0.795495,2.03294 c -1.244189,-1.0177 -2.501982,-2.00818 -3.977476,-2.56327 -0.53033,-0.025 -1.06066,-0.18099 -1.59099,0.35356 l 0.176777,2.2981 -3.181981,-1.67938 c -1.089215,-0.37429 -1.900912,-0.3323 -2.519068,0 0.420832,0.67764 0.983144,1.35529 1.193243,2.03293 -1.811517,-0.60621 -3.561919,-1.51799 -5.480078,-1.59099 l -1.06066,2.91681 c -0.766032,-0.46064 -1.532065,-0.91758 -2.298097,-2.29809 z"
         style="fill:url(#pattern5942);fill-opacity:1;fill-rule:evenodd;stroke:none;stroke-width:0.35433072;stroke-linecap:butt;stroke-linejoin:miter;stroke-miterlimit:4;stroke-dasharray:none;stroke-opacity:1" />
      <path
         sodipodi:nodetypes="ccccccc"
         inkscape:connector-curvature="0"
         id="path4446"
         d="m 87.150911,967.4652 c 1.44516,1.23309 0.495062,4.19609 -0.08839,6.89428 l 3.18198,-1.01646 c 0.91179,-1.7283 -0.203275,-4.3779 -0.441942,-6.62913 -0.318464,-2.66853 -0.830659,-4.75587 -1.502602,-6.36396 l -1.06066,3.0936 c 0.190281,0.86366 0.134135,3.16575 -0.08839,4.02167 z"
         style="fill:url(#pattern5942);fill-opacity:1;fill-rule:evenodd;stroke:none;stroke-width:0.35433072;stroke-linecap:butt;stroke-linejoin:miter;stroke-miterlimit:4;stroke-dasharray:none;stroke-opacity:1" />
      <path
         sodipodi:nodetypes="ccccccsc"
         inkscape:connector-curvature="0"
         id="path4448"
         d="m 40.747028,990.75552 c 0.952307,1.01026 3.011482,-0.26951 5.038136,1.23744 1.106621,-1.41068 2.444059,-2.35973 4.949748,-0.97227 0.241345,-0.77397 -0.116306,-1.74761 2.12132,-1.85616 l -0.176777,-3.44714 2.032932,-2.2981 c 0,0 -3.656815,3.51839 -5.833631,4.77297 -2.536537,1.4619 -8.131728,2.56326 -8.131728,2.56326 z"
         style="fill:url(#pattern5942);fill-opacity:1;fill-rule:evenodd;stroke:none;stroke-width:0.35433072;stroke-linecap:butt;stroke-linejoin:miter;stroke-miterlimit:4;stroke-dasharray:none;stroke-opacity:1" />
      <path
         sodipodi:nodetypes="cccccsc"
         inkscape:connector-curvature="0"
         id="path4450"
         d="m 53.386562,972.7243 c -0.442898,0.76722 -0.383562,0.93332 -0.603412,2.06349 2.58813,-0.78349 5.325733,-0.98512 6.525431,-0.64928 0.126339,-0.92593 1.894584,-0.86671 3.093593,-1.14904 l 0.883883,-2.47488 c 0,0 -2.649886,1.68813 -3.889087,2.03294 -2.081955,0.57931 -6.010408,0.17677 -6.010408,0.17677 z"
         style="fill:url(#pattern5942);fill-opacity:1;fill-rule:evenodd;stroke:none;stroke-width:0.35433072;stroke-linecap:butt;stroke-linejoin:miter;stroke-miterlimit:4;stroke-dasharray:none;stroke-opacity:1" />
    </g>
    <path
       style="color:#000000;font-style:normal;font-variant:normal;font-weight:normal;font-stretch:normal;font-size:medium;line-height:normal;font-family:sans-serif;text-indent:0;text-align:start;text-decoration:none;text-decoration-line:none;text-decoration-style:solid;text-decoration-color:#000000;letter-spacing:normal;word-spacing:normal;text-transform:none;direction:ltr;block-progression:tb;writing-mode:lr-tb;baseline-shift:baseline;text-anchor:start;white-space:normal;clip-rule:nonzero;display:inline;overflow:visible;visibility:visible;opacity:1;isolation:auto;mix-blend-mode:normal;color-interpolation:sRGB;color-interpolation-filters:linearRGB;solid-color:#000000;solid-opacity:1;fill:#000000;fill-opacity:1;fill-rule:evenodd;stroke:none;stroke-width:1.0629921;stroke-linecap:butt;stroke-linejoin:miter;stroke-miterlimit:4;stroke-dasharray:none;stroke-dashoffset:0;stroke-opacity:1;color-rendering:auto;image-rendering:auto;shape-rendering:auto;text-rendering:auto;enable-background:accumulate"
       d="m 86.650481,983.34873 c 0.203955,1.05791 0.31612,2.41904 -1.036855,2.79829 -0.01274,1.02414 0.301256,2.20714 -0.261988,2.77262 -0.404973,0.40659 -1.556319,0.42564 -2.113814,0.53145 -0.197039,0.76221 -0.140172,1.56229 -0.310432,2.32613 -0.143573,0.64412 -1.182517,0.59757 -1.68821,0.55228 -0.323865,0.8334 -0.63208,2.01557 -1.082901,2.22131 -0.63021,0.28759 -1.858777,0.15962 -2.510522,0.40938 -0.05113,0.66111 -0.07854,1.58478 -0.830619,1.80241 -0.841512,0.24351 -1.760412,0.009 -2.596918,0.31321 2.238452,0.87442 2.710072,0.72302 3.703756,0.36444 0.606659,-0.2189 0.480627,-1.15352 0.773053,-1.56188 0.959036,-0.1056 1.957875,-0.29931 2.67876,-1.05444 0.481726,-0.50461 0.398667,-0.9566 0.572284,-1.562 0.484601,-0.005 1.533846,-0.18893 1.790868,-0.54584 0.272425,-0.37832 0.691391,-1.55545 0.104913,-2.75154 1.885842,0.21652 2.385307,0.25057 2.750275,-1.23792 0.153291,-0.62519 -0.07597,-1.28936 -0.438956,-2.15936 0.57309,-0.24245 1.192266,-0.95481 1.193198,-1.26565 0.0017,-0.59567 -0.267887,-1.21598 -0.695892,-1.95289 z"
       id="path4234"
       inkscape:connector-curvature="0"
       sodipodi:nodetypes="ccscscscscscscscscsc" />
    <g
       id="g4428"
       style="fill:#000000"
       transform="matrix(1.0886459,0,0,1.0886459,-3.5561632,-86.592417)">
      <path
         sodipodi:nodetypes="cscscsscsccsscscsc"
         inkscape:connector-curvature="0"
         id="path4192"
         d="m 56.279297,997.26562 c 1.310119,1.2187 3.138166,2.67429 3.21721,4.58428 0.03844,0.9287 -0.933578,1.6246 -1.479836,2.2762 -0.06721,0.8993 -0.246363,2.1298 -0.733142,2.8824 -0.716665,1.1079 -1.842123,1.5924 -2.148554,1.8341 0.14585,1.1432 0.50194,1.7512 0.296006,2.7659 -0.196263,0.9671 -0.947589,2.3482 -1.108578,3.145 -0.291528,1.4428 -1.475102,3.4136 -2.901109,3.2451 -0.03106,1.0522 -0.479548,1.7823 -0.933402,2.5533 -0.644292,1.0947 -1.541266,1.8198 -2.314075,2.411 1.930204,-0.2927 3.413074,-2.0507 3.84777,-4.2559 0.904145,0.3234 1.613571,-0.5852 2.100176,-1.4674 0.446812,-0.8101 0.815453,-1.8168 1.115179,-2.7143 0.553812,-1.6583 1.425084,-3.4405 0.747881,-5.2419 0.739301,-0.2107 1.729856,-0.7637 2.257472,-1.7812 0.480313,-0.9263 0.523991,-2.2905 0.677726,-3.0994 0.905679,-0.5191 1.519707,-1.0856 1.599739,-2.0051 0.145775,-1.675 -1.519819,-3.72813 -4.240463,-5.13208 z"
         style="color:#000000;font-style:normal;font-variant:normal;font-weight:normal;font-stretch:normal;font-size:medium;line-height:normal;font-family:sans-serif;text-indent:0;text-align:start;text-decoration:none;text-decoration-line:none;text-decoration-style:solid;text-decoration-color:#000000;letter-spacing:normal;word-spacing:normal;text-transform:none;direction:ltr;block-progression:tb;writing-mode:lr-tb;baseline-shift:baseline;text-anchor:start;white-space:normal;clip-rule:nonzero;display:inline;overflow:visible;visibility:visible;opacity:1;isolation:auto;mix-blend-mode:normal;color-interpolation:sRGB;color-interpolation-filters:linearRGB;solid-color:#000000;solid-opacity:1;fill:#000000;fill-opacity:1;fill-rule:evenodd;stroke:none;stroke-width:1.0629921;stroke-linecap:butt;stroke-linejoin:miter;stroke-miterlimit:4;stroke-dasharray:none;stroke-dashoffset:0;stroke-opacity:1;color-rendering:auto;image-rendering:auto;shape-rendering:auto;text-rendering:auto;enable-background:accumulate" />
      <path
         sodipodi:nodetypes="sscsscss"
         inkscape:connector-curvature="0"
         id="path4238"
         d="m 46.277791,998.7593 c -0.982437,0.48597 -2.024521,0.90306 -3.117949,0.78703 -0.425331,-0.0451 -0.847108,-0.11677 -1.265315,-0.20453 1.045839,1.046 3.019511,1.2105 3.873912,0.8747 0.361282,-0.142 0.692803,-0.37405 1.574649,-0.58632 1.769514,-0.42592 3.459767,0.2593 4.334642,-0.74159 -0.779092,-0.10719 -1.494501,0.0273 -2.400685,-0.0849 -0.906185,-0.11218 -2.068706,-0.50475 -2.999254,-0.0444 z"
         style="color:#000000;font-style:normal;font-variant:normal;font-weight:normal;font-stretch:normal;font-size:medium;line-height:normal;font-family:sans-serif;text-indent:0;text-align:start;text-decoration:none;text-decoration-line:none;text-decoration-style:solid;text-decoration-color:#000000;letter-spacing:normal;word-spacing:normal;text-transform:none;direction:ltr;block-progression:tb;writing-mode:lr-tb;baseline-shift:baseline;text-anchor:start;white-space:normal;clip-rule:nonzero;display:inline;overflow:visible;visibility:visible;opacity:1;isolation:auto;mix-blend-mode:normal;color-interpolation:sRGB;color-interpolation-filters:linearRGB;solid-color:#000000;solid-opacity:1;fill:#000000;fill-opacity:1;fill-rule:evenodd;stroke:none;stroke-width:1.0629921;stroke-linecap:butt;stroke-linejoin:miter;stroke-miterlimit:4;stroke-dasharray:none;stroke-dashoffset:0;stroke-opacity:1;color-rendering:auto;image-rendering:auto;shape-rendering:auto;text-rendering:auto;enable-background:accumulate" />
    </g>
    <path
       style="color:#000000;font-style:normal;font-variant:normal;font-weight:normal;font-stretch:normal;font-size:medium;line-height:normal;font-family:sans-serif;text-indent:0;text-align:start;text-decoration:none;text-decoration-line:none;text-decoration-style:solid;text-decoration-color:#000000;letter-spacing:normal;word-spacing:normal;text-transform:none;direction:ltr;block-progression:tb;writing-mode:lr-tb;baseline-shift:baseline;text-anchor:start;white-space:normal;clip-rule:nonzero;display:inline;overflow:visible;visibility:visible;opacity:1;isolation:auto;mix-blend-mode:normal;color-interpolation:sRGB;color-interpolation-filters:linearRGB;solid-color:#000000;solid-opacity:1;fill:#000000;fill-opacity:1;fill-rule:evenodd;stroke:none;stroke-width:1.0629921;stroke-linecap:butt;stroke-linejoin:miter;stroke-miterlimit:4;stroke-dasharray:none;stroke-dashoffset:0;stroke-opacity:1;color-rendering:auto;image-rendering:auto;shape-rendering:auto;text-rendering:auto;enable-background:accumulate"
       d="m 47.352916,995.21171 c -0.777757,-0.0584 -1.494416,0.3411 -2.143272,0.70804 -0.843828,0.4772 -1.601832,1.103 -2.260216,1.82008 -1.208066,1.3158 -1.932358,1.2009 -2.813043,2.2304 1.122904,-0.2464 2.543015,-0.7223 3.499825,-1.3352 0.638762,0.8257 1.611293,1.40967 2.676964,1.3438 1.787968,-0.1107 3.333989,-1.4278 4.222299,-1.8545 0.844395,-0.4056 1.702892,-0.5029 1.943859,-0.3866 1.170147,0.5647 1.793273,1.6035 3.134109,1.4352 -1.161989,-0.754 -1.749844,-1.2884 -2.827927,-2.19855 -0.293817,-0.19458 -1.015756,-0.0894 -1.31403,0.0213 -0.34282,0.12719 -0.783782,-0.14889 -0.886651,-0.28917 -0.737793,-1.00614 -2.016053,-1.40342 -3.231917,-1.49476 z m -0.225384,0.84412 c 1.050756,-0.17858 2.500955,0.68076 3.193644,1.3034 -1.05319,0.5325 -2.680061,1.5336 -3.859164,1.7201 -0.791877,0.1253 -1.542296,-0.5825 -1.981676,-1.2226 0.886246,-0.75853 1.656513,-1.63253 2.647196,-1.8009 z"
       id="path4240"
       inkscape:connector-curvature="0"
       sodipodi:nodetypes="sssccsssccsssscscs" />
    <path
       style="color:#000000;font-style:normal;font-variant:normal;font-weight:normal;font-stretch:normal;font-size:medium;line-height:normal;font-family:sans-serif;text-indent:0;text-align:start;text-decoration:none;text-decoration-line:none;text-decoration-style:solid;text-decoration-color:#000000;letter-spacing:normal;word-spacing:normal;text-transform:none;direction:ltr;block-progression:tb;writing-mode:lr-tb;baseline-shift:baseline;text-anchor:start;white-space:normal;clip-rule:nonzero;display:inline;overflow:visible;visibility:visible;opacity:1;isolation:auto;mix-blend-mode:normal;color-interpolation:sRGB;color-interpolation-filters:linearRGB;solid-color:#000000;solid-opacity:1;fill:#000000;fill-opacity:1;fill-rule:evenodd;stroke:none;stroke-width:1.0629921;stroke-linecap:butt;stroke-linejoin:miter;stroke-miterlimit:4;stroke-dasharray:none;stroke-dashoffset:0;stroke-opacity:1;color-rendering:auto;image-rendering:auto;shape-rendering:auto;text-rendering:auto;enable-background:accumulate"
       d="m 12.192809,998.63983 c -0.879498,0.6108 -0.338958,0.5849 -0.950087,1.47047 -0.305098,0.453 -0.734705,0.6688 -0.767932,1.2192 0.04127,0.7297 0.553532,1.1119 1.018478,1.3333 -0.41899,-0.6096 0.698306,-2.95097 1.414624,-3.18787 0.232157,-0.2935 0.151305,-1.0272 0.501238,-1.374 0.402741,-0.3992 1.243583,-0.4075 1.595221,-0.65352 -1.414209,-0.78801 -1.786813,-0.6117 -2.811542,1.19242 z"
       id="path4244"
       inkscape:connector-curvature="0"
       sodipodi:nodetypes="cccccscc" />
    <g
       id="g4416"
       style="fill:#000000"
       transform="matrix(1.0886459,0,0,1.0886459,-3.5561632,-86.592417)">
      <path
         sodipodi:nodetypes="ssscssscs"
         inkscape:connector-curvature="0"
         id="path4302"
         d="m 39.947266,1009.3223 c -1.451606,0.2176 -2.54497,1.3501 -3.343899,2.4934 -1.143652,1.6366 -2.350837,3.3004 -4.063677,4.3843 -0.600764,0.3802 -1.230709,0.7097 -1.856096,1.0461 1.324164,0.6304 3.768483,-1.121 4.582484,-1.9668 0.941408,-0.9782 1.65657,-2.1319 2.477655,-3.2014 0.655821,-0.8542 1.094714,-1.3719 2.192811,-1.7145 1.248141,-0.3894 1.813072,-0.4682 2.934591,-0.5899 -0.965542,-0.206 -1.917338,-0.602 -2.923869,-0.4512 z"
         style="color:#000000;font-style:normal;font-variant:normal;font-weight:normal;font-stretch:normal;font-size:medium;line-height:normal;font-family:sans-serif;text-indent:0;text-align:start;text-decoration:none;text-decoration-line:none;text-decoration-style:solid;text-decoration-color:#000000;letter-spacing:normal;word-spacing:normal;text-transform:none;direction:ltr;block-progression:tb;writing-mode:lr-tb;baseline-shift:baseline;text-anchor:start;white-space:normal;clip-rule:nonzero;display:inline;overflow:visible;visibility:visible;opacity:1;isolation:auto;mix-blend-mode:normal;color-interpolation:sRGB;color-interpolation-filters:linearRGB;solid-color:#000000;solid-opacity:1;fill:#000000;fill-opacity:1;fill-rule:evenodd;stroke:none;stroke-width:1.0629921;stroke-linecap:butt;stroke-linejoin:miter;stroke-miterlimit:4;stroke-dasharray:none;stroke-dashoffset:0;stroke-opacity:1;color-rendering:auto;image-rendering:auto;shape-rendering:auto;text-rendering:auto;enable-background:accumulate" />
      <path
         sodipodi:nodetypes="sscsscs"
         inkscape:connector-curvature="0"
         id="path4304"
         d="m 39.538452,1013.0246 c -0.772781,0.5624 -1.208647,1.3215 -1.815213,2.0471 -0.618202,0.7395 -1.904128,2.0207 -2.147067,2.9635 1.020004,-1.2486 1.680621,-1.6081 2.799496,-2.6082 0.454603,-0.4063 1.135855,-1.5316 1.674711,-1.8496 0.692437,-0.4086 1.530033,-0.3271 2.303137,-0.5012 -1.443031,-0.2019 -2.065178,-0.5973 -2.815064,-0.052 z"
         style="color:#000000;font-style:normal;font-variant:normal;font-weight:normal;font-stretch:normal;font-size:medium;line-height:normal;font-family:sans-serif;text-indent:0;text-align:start;text-decoration:none;text-decoration-line:none;text-decoration-style:solid;text-decoration-color:#000000;letter-spacing:normal;word-spacing:normal;text-transform:none;direction:ltr;block-progression:tb;writing-mode:lr-tb;baseline-shift:baseline;text-anchor:start;white-space:normal;clip-rule:nonzero;display:inline;overflow:visible;visibility:visible;opacity:1;isolation:auto;mix-blend-mode:normal;color-interpolation:sRGB;color-interpolation-filters:linearRGB;solid-color:#000000;solid-opacity:1;fill:#000000;fill-opacity:1;fill-rule:evenodd;stroke:none;stroke-width:1px;stroke-linecap:butt;stroke-linejoin:miter;stroke-miterlimit:4;stroke-dasharray:none;stroke-dashoffset:0;stroke-opacity:1;color-rendering:auto;image-rendering:auto;shape-rendering:auto;text-rendering:auto;enable-background:accumulate" />
    </g>
    <g
       id="g4420"
       style="fill:#000000"
       transform="matrix(1.0886459,0,0,1.0886459,-3.5561632,-86.592417)">
      <path
         sodipodi:nodetypes="csssssssssscsscccc"
         inkscape:connector-curvature="0"
         id="path4194"
         d="m 42.045626,994.28972 c -0.485685,0.55245 -1.467967,-0.11208 -2.129743,0.23337 -1.452638,0.75829 -3.761179,1.22234 -3.831357,1.64799 -0.04297,0.26065 0.937959,0.37146 1.328897,0.35527 1.25476,-0.052 1.84946,-1.2641 3.166563,-1.19618 0.478335,0.0247 1.468421,0.57262 1.791859,0.2121 0.91198,-1.01655 1.711212,-2.36285 3.034405,-2.77076 1.199869,-0.36989 2.418807,0.50266 3.567768,0.92409 0.510664,0.18731 1.022365,0.84335 1.536297,0.66033 1.055787,-0.37598 2.205214,-0.56803 3.2862,-0.11247 1.007984,0.4248 1.90765,1.02938 2.929352,1.42617 0.850918,0.33046 1.733537,0.55439 2.617883,0.766 -1.521418,-1.01124 -2.84868,-1.89781 -4.014974,-2.66653 -0.567192,-0.37384 -1.244894,-0.53378 -1.893794,-0.69975 -0.970534,-0.24823 -1.999325,-0.0795 -2.940842,0.23151 -1.399611,-0.75753 -2.882276,-1.52684 -4.495793,-1.64998 -0.29215,-0.009 -0.586863,0.0167 -1.377623,0.27441 -0.790759,0.25771 -1.663352,1.40178 -2.575098,2.36443 z"
         style="color:#000000;font-style:normal;font-variant:normal;font-weight:normal;font-stretch:normal;font-size:medium;line-height:normal;font-family:sans-serif;text-indent:0;text-align:start;text-decoration:none;text-decoration-line:none;text-decoration-style:solid;text-decoration-color:#000000;letter-spacing:normal;word-spacing:normal;text-transform:none;direction:ltr;block-progression:tb;writing-mode:lr-tb;baseline-shift:baseline;text-anchor:start;white-space:normal;clip-rule:nonzero;display:inline;overflow:visible;visibility:visible;opacity:1;isolation:auto;mix-blend-mode:normal;color-interpolation:sRGB;color-interpolation-filters:linearRGB;solid-color:#000000;solid-opacity:1;fill:#000000;fill-opacity:1;fill-rule:evenodd;stroke:none;stroke-width:1.0629921;stroke-linecap:butt;stroke-linejoin:miter;stroke-miterlimit:4;stroke-dasharray:none;stroke-dashoffset:0;stroke-opacity:1;color-rendering:auto;image-rendering:auto;shape-rendering:auto;text-rendering:auto;enable-background:accumulate" />
      <path
         sodipodi:nodetypes="ccscsccsccsssssscscscscscscscscscscscscscsscscscscc"
         inkscape:connector-curvature="0"
         id="path4226"
         d="m 68.472656,954.91992 c -0.965611,-0.21389 -1.798137,0.19709 -1.77539,0.9668 0.672945,-0.42318 1.109267,-0.5333 1.556338,-0.4129 0.399125,0.10748 0.73844,0.97387 0.775693,1.44608 0.537857,-0.19552 1.40707,-0.22619 2.029394,-0.0446 0.468512,0.13668 1.172094,0.26864 0.614012,1.13486 1.089718,0.57836 1.363353,0.33277 2.434619,1.38526 -0.115178,0.39072 -0.271601,0.9417 -0.15138,1.14333 0.230461,0.38652 0.663513,0.14781 1.146829,0.40659 0.266752,0.45441 -0.272989,1.10306 -0.648903,1.28334 0.188912,0.19596 1.072634,1.0842 0.993529,1.21433 -0.166864,0.27451 -0.84952,0.32548 -0.931096,0.99377 -0.05997,0.49125 0.654157,1.47608 0.534247,1.78861 -0.269042,0.70121 -1.499734,0.67407 -2.200516,1.19609 -0.690785,0.51457 -0.354452,1.89852 -0.747619,2.29327 -0.150759,0.15136 -1.114123,-0.004 -1.555599,0.1731 -1.244135,0.50043 -1.1044,0.85331 -1.595015,1.66256 -0.266442,0.14936 -1.803317,0.4992 -1.949541,0.62692 -0.495248,0.43257 -0.452482,0.82657 -0.897988,1.76164 -0.496808,0.14742 -1.57722,0.21574 -2.007048,0.5219 -0.824169,0.58705 -0.845629,1.5467 -0.922738,2.09474 -0.632585,0.1002 -1.885556,0.57264 -2.201982,0.90734 -0.62549,0.66162 -0.766276,1.63978 -0.948124,2.37466 -0.647056,0.23208 -2.004991,0.52674 -2.471125,1.06638 -0.382466,0.44277 -0.356351,1.67485 -0.261359,2.31841 -0.801489,0.56506 -1.231097,0.86048 -1.760969,2.05593 -0.27229,0.61432 -0.0042,2.13611 0.652214,3.13897 -0.04124,-1.51336 -0.502382,-2.10431 0.201422,-3.01337 0.523433,-0.67608 1.214985,-1.28697 1.905582,-1.66901 -0.291124,-0.73026 -0.442572,-1.89675 0.02168,-2.30682 0.465055,-0.41078 1.984037,-0.68968 2.531219,-0.89437 0.350733,-1.00082 0.22543,-1.40446 0.746795,-2.3169 0.535493,-0.93717 1.53473,-0.75121 2.293502,-0.87749 0.09356,-0.7093 0.117819,-1.70569 0.670043,-2.23879 0.349594,-0.33748 1.723041,-0.53318 2.238308,-0.55436 0.137654,-0.70634 0.234018,-1.38693 0.730598,-1.71245 0.234469,-0.15369 1.589412,-0.57198 2.048806,-0.53268 0.689361,-0.61397 0.176427,-1.03265 1.184758,-1.51396 0.714531,-0.34107 2.223566,0.24415 2.5963,-0.16176 -0.141871,-0.77333 -0.208151,-1.82198 0.327082,-2.39571 0.623541,-0.66839 1.238732,-0.83847 2.300419,-1.41436 0.191293,-0.5192 -0.64265,-1.40868 -0.455569,-1.95273 0.08322,-0.24202 0.822124,-0.81795 0.989763,-1.25694 0.09194,-0.24076 -0.440948,-0.98732 -1.119324,-1.16622 0.364944,-0.53305 0.739726,-1.22519 0.672249,-1.62993 -0.08465,-0.50771 -0.891403,-0.53238 -1.264835,-0.80623 0.163923,-0.64835 0.04661,-1.27329 -0.366699,-1.58687 -0.5719,-0.4339 -1.601529,-0.28426 -1.634491,-0.75983 0.144865,-0.51853 -0.139515,-0.96452 -0.628583,-1.2697 -0.698962,-0.43615 -1.816005,-0.58469 -2.69561,-0.24627 0.01349,-0.7839 -0.42397,-1.24495 -1.003898,-1.22059 z"
         style="color:#000000;font-style:normal;font-variant:normal;font-weight:normal;font-stretch:normal;font-size:medium;line-height:normal;font-family:sans-serif;text-indent:0;text-align:start;text-decoration:none;text-decoration-line:none;text-decoration-style:solid;text-decoration-color:#000000;letter-spacing:normal;word-spacing:normal;text-transform:none;direction:ltr;block-progression:tb;writing-mode:lr-tb;baseline-shift:baseline;text-anchor:start;white-space:normal;clip-rule:nonzero;display:inline;overflow:visible;visibility:visible;opacity:1;isolation:auto;mix-blend-mode:normal;color-interpolation:sRGB;color-interpolation-filters:linearRGB;solid-color:#000000;solid-opacity:1;fill:#000000;fill-opacity:1;fill-rule:evenodd;stroke:none;stroke-width:1.0629921;stroke-linecap:butt;stroke-linejoin:miter;stroke-miterlimit:4;stroke-dasharray:none;stroke-dashoffset:0;stroke-opacity:1;color-rendering:auto;image-rendering:auto;shape-rendering:auto;text-rendering:auto;enable-background:accumulate" />
      <path
         sodipodi:nodetypes="scscsscscscscscscscscccscscscscssscsccs"
         inkscape:connector-curvature="0"
         id="path4228"
         d="m 78.65969,960.49113 c 0.337083,0.55937 0.0025,1.78386 0.234515,2.09128 0.256962,0.22817 0.598968,0.79801 0.665868,1.06113 0.166996,0.65678 -0.399388,1.03704 -1.093161,1.40183 0.612409,0.71949 1.38198,1.1403 1.316904,2.34193 -0.09437,1.74258 -2.171836,1.91878 -2.784858,2.71817 -0.846257,1.10353 -0.167582,1.80295 0.197943,2.67174 -0.725014,-0.0708 -1.739468,-0.40761 -2.193099,0.46005 -0.381874,0.73041 -0.325525,1.65114 0.08678,2.32537 -0.902869,0.15024 -1.429357,-0.64735 -2.160261,0.53591 -0.564333,0.9136 -0.28826,1.47812 0.0091,2.06726 -0.869657,0.0544 -1.350568,-0.9824 -2.501124,0.26869 -0.912853,0.99262 -0.12819,1.9587 0.10581,2.58737 -0.577189,-0.2906 -1.289418,-0.98286 -2.376044,0.067 -0.776834,0.75055 -0.380197,1.21902 -0.08806,2.05971 -0.768673,-0.24625 -1.40462,-0.49362 -2.460522,0.58572 -0.951345,0.97246 -0.823626,2.0819 -0.546242,3.03512 -0.560853,-0.10386 -2.1002,-0.77412 -2.850879,-0.23377 -0.89917,0.64723 -1.063517,2.15914 -0.604266,3.02751 0.342138,-1.08021 0.584924,-1.5237 1.077075,-2.1557 0.601934,-0.77298 2.082999,0.005 2.951302,0.0906 0.103425,-1.10083 -0.211952,-2.82767 1.10699,-3.05557 0.889837,-0.27197 1.173338,-0.6293 1.911419,-0.69164 0.09817,-0.51889 -0.302804,-1.40713 0.0222,-1.84225 0.382995,-0.51276 1.531224,-0.51774 2.154001,-0.31682 0.636927,0.0162 0.06718,-1.56325 0.426481,-2.08193 0.576315,-0.83197 1.078126,-0.32776 2.37109,-0.94336 0.07215,-0.55843 -0.15189,-1.22667 0.129903,-1.72052 0.239179,-0.41917 1.555139,-0.6502 2.181128,-0.64433 -0.521173,-0.5868 -0.41026,-1.96772 -0.156229,-2.3376 0.378511,-0.55113 1.564494,-0.32528 2.190881,-0.67212 -0.471678,-0.97419 -0.577241,-1.49862 -0.124684,-2.2998 0.336834,-0.59631 1.168623,-0.49447 1.80506,-1.17619 0.646471,-0.69248 1.297814,-1.02255 1.177069,-2.11238 -0.168364,-1.51965 -0.547227,-2.1878 -1.16451,-2.47775 0.433105,-0.43629 1.066145,-1.12884 1.076807,-1.82606 0.0065,-0.42384 -0.217021,-0.84941 -0.855226,-1.22019 -1.2872,-4.3217 -2.992091,-3.10758 -3.453108,-3.03875 1.226483,0.25633 1.735916,0.65709 2.213947,1.45034 z"
         style="color:#000000;font-style:normal;font-variant:normal;font-weight:normal;font-stretch:normal;font-size:medium;line-height:normal;font-family:sans-serif;text-indent:0;text-align:start;text-decoration:none;text-decoration-line:none;text-decoration-style:solid;text-decoration-color:#000000;letter-spacing:normal;word-spacing:normal;text-transform:none;direction:ltr;block-progression:tb;writing-mode:lr-tb;baseline-shift:baseline;text-anchor:start;white-space:normal;clip-rule:nonzero;display:inline;overflow:visible;visibility:visible;opacity:1;isolation:auto;mix-blend-mode:normal;color-interpolation:sRGB;color-interpolation-filters:linearRGB;solid-color:#000000;solid-opacity:1;fill:#000000;fill-opacity:1;fill-rule:evenodd;stroke:none;stroke-width:1.0629921;stroke-linecap:butt;stroke-linejoin:miter;stroke-miterlimit:4;stroke-dasharray:none;stroke-dashoffset:0;stroke-opacity:1;color-rendering:auto;image-rendering:auto;shape-rendering:auto;text-rendering:auto;enable-background:accumulate" />
      <path
         sodipodi:nodetypes="scscscscscscscscs"
         inkscape:connector-curvature="0"
         id="path4230"
         d="m 51.023909,978.11636 c -0.646921,0.59237 -0.453684,1.66995 -0.468303,2.55249 -0.796644,0.28437 -1.717109,0.3831 -2.116131,1.20543 -0.200063,0.4123 0.0013,1.47616 0.19866,2.43313 -0.802467,0.21982 -1.953655,0.15187 -2.219565,1.16373 -0.237365,0.90323 0.200799,1.90078 0.825224,3.07934 -0.231658,-1.28704 -0.490277,-2.06312 -0.296759,-2.81305 0.250652,-0.97134 1.555196,-0.93655 2.119365,-1.17884 -0.102851,-0.80037 -0.275987,-1.84803 0.195638,-2.55951 0.382424,-0.57692 1.145662,-0.71022 1.714578,-1.06139 -0.106623,-0.89057 0.06949,-1.63815 0.579402,-2.20479 0.450592,-0.50072 1.484273,-0.60441 2.039645,-0.78177 0.103118,-0.91341 0.35487,-1.72659 1.138138,-2.19053 0.439058,-0.26005 1.150442,-0.36159 1.404088,-0.18359 -0.829941,-0.76841 -1.58873,-0.36013 -2.096674,-0.0855 -0.804354,0.43491 -0.884326,1.3268 -0.80857,2.02621 -0.719739,0.0365 -1.573513,0.017 -2.208736,0.59864 z"
         style="color:#000000;font-style:normal;font-variant:normal;font-weight:normal;font-stretch:normal;font-size:medium;line-height:normal;font-family:sans-serif;text-indent:0;text-align:start;text-decoration:none;text-decoration-line:none;text-decoration-style:solid;text-decoration-color:#000000;letter-spacing:normal;word-spacing:normal;text-transform:none;direction:ltr;block-progression:tb;writing-mode:lr-tb;baseline-shift:baseline;text-anchor:start;white-space:normal;clip-rule:nonzero;display:inline;overflow:visible;visibility:visible;opacity:1;isolation:auto;mix-blend-mode:normal;color-interpolation:sRGB;color-interpolation-filters:linearRGB;solid-color:#000000;solid-opacity:1;fill:#000000;fill-opacity:1;fill-rule:evenodd;stroke:none;stroke-width:1.0629921;stroke-linecap:butt;stroke-linejoin:miter;stroke-miterlimit:4;stroke-dasharray:none;stroke-dashoffset:0;stroke-opacity:1;color-rendering:auto;image-rendering:auto;shape-rendering:auto;text-rendering:auto;enable-background:accumulate" />
      <path
         sodipodi:nodetypes="ssssscssssscs"
         inkscape:connector-curvature="0"
         id="path4236"
         d="m 58.378906,989.125 c -0.513104,0.0164 -0.888227,0.55723 -1.388672,0.55664 -0.769895,-9.1e-4 -1.52069,-0.52172 -2.280594,-0.24606 -0.515103,0.18686 -0.847639,0.74248 -1.377609,0.8652 -0.740971,0.17158 -1.572476,-0.26378 -2.284434,0.11555 -0.521518,0.27786 -0.932336,0.72458 -1.235097,1.22429 1.081646,-0.60333 1.811724,-0.83957 2.371696,-0.71132 0.556394,0.12743 1.006068,0.70627 1.518929,0.4477 0.632729,-0.319 0.781805,-1.32911 1.54638,-1.24889 0.536734,0.0563 1.323745,0.76151 1.855964,0.70006 0.32913,-0.038 0.815989,-0.77598 1.137407,-0.89718 1.318884,-0.49734 1.162988,-0.40575 2.208296,-0.25735 -0.621457,-0.36978 -1.347767,-0.57174 -2.072266,-0.54864 z"
         style="color:#000000;font-style:normal;font-variant:normal;font-weight:normal;font-stretch:normal;font-size:medium;line-height:normal;font-family:sans-serif;text-indent:0;text-align:start;text-decoration:none;text-decoration-line:none;text-decoration-style:solid;text-decoration-color:#000000;letter-spacing:normal;word-spacing:normal;text-transform:none;direction:ltr;block-progression:tb;writing-mode:lr-tb;baseline-shift:baseline;text-anchor:start;white-space:normal;clip-rule:nonzero;display:inline;overflow:visible;visibility:visible;opacity:1;isolation:auto;mix-blend-mode:normal;color-interpolation:sRGB;color-interpolation-filters:linearRGB;solid-color:#000000;solid-opacity:1;fill:#000000;fill-opacity:1;fill-rule:evenodd;stroke:none;stroke-width:1.0629921;stroke-linecap:butt;stroke-linejoin:miter;stroke-miterlimit:4;stroke-dasharray:none;stroke-dashoffset:0;stroke-opacity:1;color-rendering:auto;image-rendering:auto;shape-rendering:auto;text-rendering:auto;enable-background:accumulate" />
      <path
         sodipodi:nodetypes="csscssc"
         inkscape:connector-curvature="0"
         id="path4308"
         d="m 86.140625,986.72461 c -1.511165,2.04537 -0.176745,3.93342 -0.986328,5.79101 -0.809583,1.8576 -2.332994,2.96023 -3.111328,3.54883 l -2.195313,1.66016 c 2.777045,-0.65049 4.673434,-2.00704 5.78125,-3.9082 0.629113,-1.07964 0.17544,-3.25032 0.345703,-5.19532 z"
         style="color:#000000;font-style:normal;font-variant:normal;font-weight:normal;font-stretch:normal;font-size:medium;line-height:normal;font-family:sans-serif;text-indent:0;text-align:start;text-decoration:none;text-decoration-line:none;text-decoration-style:solid;text-decoration-color:#000000;letter-spacing:normal;word-spacing:normal;text-transform:none;direction:ltr;block-progression:tb;writing-mode:lr-tb;baseline-shift:baseline;text-anchor:start;white-space:normal;clip-rule:nonzero;display:inline;overflow:visible;visibility:visible;opacity:1;isolation:auto;mix-blend-mode:normal;color-interpolation:sRGB;color-interpolation-filters:linearRGB;solid-color:#000000;solid-opacity:1;fill:#000000;fill-opacity:1;fill-rule:evenodd;stroke:none;stroke-width:1.0629921;stroke-linecap:butt;stroke-linejoin:miter;stroke-miterlimit:4;stroke-dasharray:none;stroke-dashoffset:0;stroke-opacity:1;color-rendering:auto;image-rendering:auto;shape-rendering:auto;text-rendering:auto;enable-background:accumulate" />
    </g>
    <path
       style="color:#000000;font-style:normal;font-variant:normal;font-weight:normal;font-stretch:normal;font-size:medium;line-height:normal;font-family:sans-serif;text-indent:0;text-align:start;text-decoration:none;text-decoration-line:none;text-decoration-style:solid;text-decoration-color:#000000;letter-spacing:normal;word-spacing:normal;text-transform:none;direction:ltr;block-progression:tb;writing-mode:lr-tb;baseline-shift:baseline;text-anchor:start;white-space:normal;clip-rule:nonzero;display:inline;overflow:visible;visibility:visible;opacity:1;isolation:auto;mix-blend-mode:normal;color-interpolation:sRGB;color-interpolation-filters:linearRGB;solid-color:#000000;solid-opacity:1;fill:#000000;fill-opacity:1;fill-rule:evenodd;stroke:none;stroke-width:1.21626484;stroke-linecap:round;stroke-linejoin:bevel;stroke-miterlimit:4;stroke-dasharray:none;stroke-dashoffset:0;stroke-opacity:1;marker:none;color-rendering:auto;image-rendering:auto;shape-rendering:auto;text-rendering:auto;enable-background:accumulate"
       d="m 17.369652,995.572 c -0.236058,0.87356 0.518788,1.10299 1.123706,1.74366 0.933147,0.98827 1.422733,1.17817 2.904746,1.31767 0.994963,0.094 1.061107,-0.5444 1.148596,-1.3661 0.100852,-0.94716 -0.432264,-1.75865 -1.180345,-2.30494 -0.990198,-0.72309 -1.843501,-0.45108 -2.963047,-0.30144 -0.571184,0.0763 -0.87107,0.30948 -1.033656,0.91115 z m 1.314948,0.20266 c 0.179657,-0.49845 0.729589,-0.16823 1.214887,-0.16385 0.785032,0.008 1.132277,0.36393 1.466367,1.10078 0.18662,0.4116 -0.02822,0.54972 -0.43224,0.75223 -0.74851,0.37521 -1.048906,-0.0691 -1.663645,-0.60287 -0.346203,-0.30044 -0.754978,-0.61572 -0.585369,-1.08629 z"
       id="path4293"
       inkscape:connector-curvature="0"
       sodipodi:nodetypes="sssssssssssss" />
    <path
       style="color:#000000;display:inline;overflow:visible;visibility:visible;opacity:1;fill:#000000;fill-opacity:1;fill-rule:evenodd;stroke:none;stroke-width:0.35433072;stroke-linecap:round;stroke-linejoin:bevel;stroke-miterlimit:4;stroke-dasharray:none;stroke-dashoffset:0;stroke-opacity:1;marker:none;enable-background:accumulate"
       d="m 48.524866,997.47426 c -3e-6,0.66327 -0.466918,1.23487 -1.116828,1.36717 -0.64991,0.1323 -1.303168,-0.2111 -1.562544,-0.8215 -0.259373,-0.61047 -0.05317,-1.31914 0.493228,-1.6951 0.546397,-0.37596 1.28195,-0.31533 1.759388,0.14506 -1.176501,0.37489 -1.106367,0.72571 -1.209045,1.12464 0.545266,-0.16786 1.090534,-0.44097 1.635801,-0.12027 z"
       id="path4405"
       inkscape:connector-curvature="0"
       sodipodi:nodetypes="csssccc" />
    <path
       style="color:#000000;font-style:normal;font-variant:normal;font-weight:normal;font-stretch:normal;font-size:medium;line-height:normal;font-family:sans-serif;text-indent:0;text-align:start;text-decoration:none;text-decoration-line:none;text-decoration-style:solid;text-decoration-color:#000000;letter-spacing:normal;word-spacing:normal;text-transform:none;direction:ltr;block-progression:tb;writing-mode:lr-tb;baseline-shift:baseline;text-anchor:start;white-space:normal;clip-rule:nonzero;display:inline;overflow:visible;visibility:visible;opacity:1;isolation:auto;mix-blend-mode:normal;color-interpolation:sRGB;color-interpolation-filters:linearRGB;solid-color:#000000;solid-opacity:1;fill:#000000;fill-opacity:1;fill-rule:evenodd;stroke:none;stroke-width:1px;stroke-linecap:butt;stroke-linejoin:miter;stroke-miterlimit:4;stroke-dasharray:none;stroke-dashoffset:0;stroke-opacity:1;color-rendering:auto;image-rendering:auto;shape-rendering:auto;text-rendering:auto;enable-background:accumulate"
       d="m 56.627668,946.4459 c -0.1994,1.48154 0.19473,3.74877 -0.39761,4.2589 -0.90964,-0.56339 -2.249344,-3.50556 -4.44814,-3.29996 -0.213447,1.63426 0.15434,2.95244 -0.195615,4.00588 -1.453436,-1.91776 -4.162477,-3.8756 -4.511928,-3.49983 0.587468,1.15642 0.160053,3.24432 0.276415,4.17811 -1.236778,-0.86263 -4.782044,-2.84905 -5.455988,-2.54089 0.769807,1.21408 0.59085,3.19542 0.990838,4.37372 -1.04666,-1.56351 -5.670323,-2.71726 -6.448951,-1.7733 0.423539,0.91865 2.784209,3.18123 2.804539,4.2504 -1.663676,-2.81275 -6.480477,-3.0858 -7.558859,-2.18155 0.738155,0.9424 1.002627,1.81101 2.194302,3.39777 -0.511691,-1.07353 -5.765118,-2.31047 -7.048558,-1.5224 0.407399,1.19301 2.501289,2.41816 2.649322,3.20427 -1.673932,-0.33549 -6.050683,-2.55158 -6.959254,-1.19496 1.140813,1.31367 2.016955,2.19048 2.508988,3.42966 -1.116681,0.23032 -4.820998,-2.07561 -7.318591,-1.33316 0.374261,0.53809 2.380625,3.83617 2.368655,4.04627 -1.62153,-0.33334 -4.819919,-3.20267 -5.938649,-2.45158 0.914545,0.87748 1.063594,2.51607 1.392702,3.4488 -0.735715,-0.82071 -3.660071,-2.07676 -5.062629,-1.91364 0.06682,0.99387 -0.5680705,0.72105 -1.0376145,2.31338 -0.568465,-0.15276 -2.7905903,-2.17753 -4.6288716,-2.13052 0.054255,0.45734 -0.5823056,2.8311 -0.8483784,2.91723 -1.0066943,0.3259 -1.2260462,-0.19583 -2.8640743,-0.49967 -0.42449072,3.35059 1.9239019,6.14022 3.2212862,6.74663 2.6080701,1.21903 6.7936156,1.06996 9.6914996,2.55789 4.755307,2.44163 10.631003,1.15109 15.932078,0.42313 5.223953,-0.71737 7.886738,-7.58412 13.593189,-7.70345 5.235024,-0.14594 9.453764,-3.0952 14.692468,-2.24746 2.595989,-0.79734 8.243359,0.15173 8.532686,1.48839 0.129181,0.5968 -1.09926,1.76596 -3.22979,2.50686 -1.955493,-1.2617 -4.887993,-1.67494 -6.897593,-0.88027 -2.59875,1.02763 -4.122603,3.75347 -4.875518,5.92164 -3.381327,1.55736 -5.757589,4.22375 -7.616268,7.27606 -1.406703,2.31008 -2.162362,3.47598 -3.015039,5.98118 -0.174853,0.51372 -0.68829,2.15156 -0.986586,2.324 -0.729201,0.42155 -2.213972,0.0263 -3.608265,0.23814 -0.934842,0.14201 -1.829535,0.55672 -2.42819,1.67124 -1.861684,3.46592 -8.407622,4.08037 -10.788652,0.77184 -0.293723,-0.40814 -2.983659,-1.716 -5.640971,-1.56281 -1.916437,0.11049 -3.594082,1.18681 -4.369468,2.55364 -3.4676565,1.26133 -3.5674315,2.4765 -4.6331235,4.00805 -2.9619581,2.03017 -1.300916,4.37577 0.112692,5.29217 1.4441485,0.9363 3.8193685,1.5333 4.8436235,2.1922 2.150573,2.1463 6.170789,0.3738 9.466116,1.1652 1.370794,0.3292 3.36912,-1.2542 4.648008,-1.7202 1.041997,-0.3796 1.881307,-0.1194 1.903003,0.2361 -0.673351,0.7437 -0.745839,1.5325 -1.237483,2.0199 -0.823583,-0.173 -1.644803,-0.6277 -2.353772,-0.053 -0.164034,0.2146 -0.563886,0.4154 -0.793095,0.4168 -0.735382,-0.016 -1.906331,-0.2697 -2.638692,-0.1552 -1.255391,0.3186 -2.660286,0.7738 -3.327598,2.1241 0.405228,0.1045 1.982356,0.01 2.368655,0.1744 -1.503238,0.3623 -4.179428,1.0898 -4.901033,2.8619 1.482792,-0.082 4.21524,-0.2142 4.503422,-0.2232 -0.589446,0.4917 -2.252032,2.2623 -2.026327,3.0682 1.063703,-0.2987 2.995522,-0.5622 4.562957,-0.7549 -2.460923,1.5696 -3.932761,3.9237 -6.132138,5.843 -3.076816,2.685 -8.2998275,4.8837 -7.227163,9.7149 0.744062,1.4613 1.702655,3.1404 2.959756,4.1164 2.117516,1.644 4.905001,2.0888 7.650289,1.9392 4.510939,-0.1997 8.361769,-3.1869 12.955312,-2.1029 4.440158,1.1532 8.741099,-0.7578 13.02973,-1.5373 3.576008,-2.9209 6.397176,-2.7824 11.164999,-2.3644 5.410495,0.4743 8.637331,-5.0149 12.464145,-7.68 2.050144,1.0508 6.370502,-2.7304 6.780649,-2.6834 2.461702,0.2822 -0.945263,2.0142 -1.885995,3.2213 -1.166765,2.6363 -0.48783,5.6388 -1.29702,7.931 -0.390503,1.1061 -1.459534,1.8627 -2.619554,2.6833 -2.594999,1.9608 -6.521946,7.7062 -3.89531,10.4591 1.133376,-1.627 3.094637,-1.8265 4.937179,-2.3623 1.275772,-0.371 2.494877,-1.2026 3.342482,-1.5458 -0.53277,2.4846 -0.417084,2.82 -0.644257,5.3539 0.233727,2.8915 1.324549,4.8202 1.783934,6.8891 0.746127,-0.9788 3.011977,-3.1814 4.24827,-5.1689 1.2152,-1.9537 1.451078,-4.4615 1.937025,-5.5581 2.062147,1.083 2.590245,1.1468 3.929331,2.9066 1.091333,1.0558 3.704242,3.8243 4.913791,4.9925 1.581555,-2.5939 0.592112,-6.1356 0.576217,-6.9805 2.168469,0.1801 2.644867,1.3472 4.669269,1.903 0.0725,-2.472 -1.652492,-5.8597 -3.282948,-6.9869 0.481084,-0.2828 0.724115,-0.3629 1.550045,-0.2467 0.863151,0.1216 2.606583,1.1177 3.142613,1.127 -0.38358,-3.2609 -3.458515,-6.1734 -6.497853,-6.6659 -3.573505,-1.7302 -0.55291,-3.4545 0.86964,-5.6601 2.985418,-4.1697 4.055603,-9.5627 2.453706,-14.4883 0.347684,-4.2185 -3.566079,-6.8159 -5.885492,-8.4944 3.244868,-1.5838 4.572899,-5.28687 4.624619,-8.74532 0.617513,1.04697 1.680808,2.00744 2.022075,1.83496 0.283252,-1.03713 0.311967,-1.31209 0.654885,-3.55511 0.77761,1.14741 2.91108,2.16381 3.433921,1.92214 0.71555,-0.33074 0.2397,-3.59492 -0.31261,-5.13917 1.98373,0.0677 3.53088,0.8681 5.02223,1.21622 0.18184,-1.32811 -1.25678,-3.45023 -1.83922,-4.16747 -1.0467,-1.28896 -4.148251,-2.16342 -5.925891,-2.11988 0.24433,-1.18439 0.7363,-2.98239 0.60386,-4.35033 -0.38231,-3.94906 -3.778357,-5.33949 -7.035797,-6.32563 0.676675,-2.41102 -0.178911,-4.7845 -0.710172,-7.28245 -0.616559,-2.89896 -1.008602,-7.53039 -3.121351,-9.68937 -0.533607,-0.54528 -1.500916,-0.27947 -2.385667,-0.48691 0.331103,-2.28133 -0.10716,-2.87618 -0.950394,-3.58701 -0.738914,-0.62288 -1.552156,-0.44204 -2.708857,0.52519 0.280542,-1.5761 -0.919661,-2.86009 -2.045463,-3.25105 -0.606855,-0.21075 -2.101802,0.16366 -2.589786,1.6032 -0.08496,-1.30847 -1.271316,-2.51883 -2.341015,-2.76627 -1.066487,-0.2467 -2.401005,0.80171 -2.602544,1.98806 -0.337488,-1.65398 -2.07828,-3.08461 -3.340356,-2.92361 -1.112476,0.14191 -1.018918,1.6447 -1.326787,2.65995 -0.657292,-1.34228 -2.580106,-2.54292 -3.493449,-2.47922 -1.08081,0.0754 -1.133251,1.61302 -1.50114,2.38141 -0.885037,-1.14993 -3.260363,-4.15305 -5.288013,-4.01863 z m 1.407586,2.09224 c 1.559502,0.61028 3.209154,2.86476 4.042022,3.91232 0.918818,-0.88183 0.690405,-2.17442 1.560676,-2.20281 1.667411,-0.0544 2.628911,1.66814 3.776241,1.59045 0.591916,-0.65652 0.717868,-2.16705 1.573434,-2.21769 1.141574,-0.0676 1.831702,2.45717 2.462211,2.53237 0.934175,-0.61026 1.540529,-1.95268 2.311245,-1.93277 0.538686,0.0139 1.403917,1.73399 1.4735,3.00228 1.466017,0.76829 2.736228,-1.8243 3.493447,-1.52453 1.348209,0.53374 1.868066,1.05969 1.975298,3.02993 0.647296,-0.33429 1.588828,-1.55367 2.285731,-1.04187 0.575945,0.42297 0.753856,2.34886 0.372096,4.0973 1.316665,-0.50015 2.286187,-0.33631 2.898094,0.29981 0.721957,0.75052 0.946338,2.1588 0.659141,3.91444 -0.458301,0.84413 -0.591951,2.19829 -0.253025,3.20428 0.472238,1.40169 -0.151769,3.07764 -1.413964,3.95272 -1.518402,1.05272 -0.167484,3.16612 -1.441606,4.35458 -0.792649,0.73937 -0.375741,1.9542 -0.718676,3.33611 -0.191686,0.77243 -0.81585,0.98776 -1.135424,1.80094 -0.217951,0.5546 -0.35186,1.52421 -0.54007,2.30487 -0.787947,-0.02 -1.99129,0.53487 -2.204933,1.09715 -0.242646,0.63861 -0.2156,1.36316 0.170101,1.95829 -0.74803,-0.0624 -1.767225,0.0948 -2.090115,0.55283 -0.530233,0.75219 -0.370083,1.87491 -0.40399,2.53237 -0.858951,-0.1237 -1.844221,0.25416 -2.349519,0.76758 -0.727167,0.73886 -0.821118,1.80931 -1.156686,2.49836 -0.643907,-0.26071 -1.577955,-0.40245 -2.17304,0.0128 -0.646306,0.45093 -0.936848,1.49776 -1.156686,2.16666 -0.948503,-0.51867 -1.058625,-0.88803 -2.111377,-0.87815 -0.851087,0.008 -1.210638,0.47095 -1.945529,1.50752 -0.847855,-0.2232 -1.831131,-1.04904 -2.946999,-0.77821 -1.138129,0.27624 -2.405246,1.66144 -2.808792,2.58554 1.1071,-0.90887 1.909473,-1.4907 3.170257,-1.68826 1.153636,-0.18076 1.792978,0.55202 2.949124,1.22473 0.505304,-1.00073 0.9809,-1.43832 1.885994,-1.8137 0.920407,-0.38173 1.393216,0.55905 2.070979,1.18645 0.31713,-0.60808 0.915819,-2.15788 1.505393,-2.68121 0.61872,-0.5492 1.337085,-0.0468 2.249585,0.4614 0.05445,-1.04121 0.855589,-2.14913 1.367186,-2.9874 0.70761,-0.53079 1.987869,-0.77271 2.838559,-0.5018 -0.440838,-1.14195 -0.305006,-2.32686 -0.07016,-2.79816 0.381199,-0.76504 0.88553,-0.82674 2.249584,-0.47203 -0.451079,-1.15445 -0.771881,-1.41859 -0.412494,-2.21344 0.515905,-1.14101 1.842933,-0.57529 2.696099,-0.5996 -0.325646,-0.70815 -0.691774,-1.40646 0.05316,-2.19856 0.477686,-0.50793 0.326531,-1.26978 0.744191,-1.84134 0.802557,-1.09829 0.173222,-2.1622 0.474157,-3.33185 0.22665,-0.88094 1.735674,-1.32177 1.683999,-2.21769 -0.07115,-1.23364 0.04861,-2.38023 1.092898,-3.13624 1.251041,-0.90569 1.425993,-3.01894 0.997217,-4.44814 -0.150579,-0.50191 0.0186,-2.06468 0.3806,-2.79603 1.420459,2.39591 0.159606,6.24401 1.341672,8.4774 0.664003,1.25457 0.04719,1.8255 -0.395485,2.79178 -1.301758,-0.10451 -2.806657,0.69404 -3.642286,1.47138 -1.222713,1.13742 -0.331061,2.91143 -0.284919,4.36521 0.777999,-1.1448 0.187048,-1.94851 0.659141,-2.79178 0.205222,-0.36657 0.515982,-0.96062 0.918545,-1.08652 0.831204,-0.25994 0.902271,-0.41864 1.754166,-0.26578 0.210578,0.0378 0.985442,-0.30239 1.505393,-0.35934 1.752413,2.65243 5.664783,0.49372 5.887618,4.30143 2.20002,1.85064 -0.436879,6.37671 0.03828,6.96988 1.517544,-0.44702 3.076584,-0.32193 4.392857,0.15309 -0.18514,0.1518 -0.347903,0.32899 -0.442263,0.56559 -0.18578,0.44449 -0.31875,0.92031 -0.35083,1.38845 -0.57504,-0.38481 -2.5141,-0.95143 -2.55152,-0.72506 0.29879,0.51965 0.80252,0.57117 1.08508,0.80281 0.32739,0.26838 0.67758,0.55021 0.70523,0.63667 -0.91626,0.0561 -1.73278,0.77148 -1.92851,1.67124 -0.008,0.0321 -0.958332,-0.58089 -1.135428,-0.99083 -0.348064,-0.18271 -0.443997,-0.0998 -0.537944,0.13182 0.166708,0.43609 1.118849,1.38279 1.048247,1.64786 -0.211242,-0.21064 -0.432833,-0.3932 -0.688909,-0.43376 -0.791863,-0.15695 -1.399039,0.39788 -1.828585,1.06738 -0.03667,-0.17419 -0.05438,-0.33864 -0.02552,-0.47415 0.296658,-1.39282 -0.517192,-3.54383 -1.764797,-4.89891 0.755025,0.78884 2.301799,0.42142 2.560019,-0.16585 l -1.20559,-0.0128 c -0.646867,-0.007 -1.438838,-0.77002 -1.907257,-1.12904 -0.534935,-0.80632 -0.650082,-1.23125 -1.379943,-1.86686 -0.448109,-0.39024 -1.836242,-1.18447 -3.102216,-1.903 1.25625,1.35047 3.030299,3.07975 4.016507,4.64375 0.701764,1.11291 1.017686,2.41707 1.38207,3.67205 0.196285,0.67602 0.569763,1.34293 0.525187,2.04547 -0.04341,0.68429 -0.440894,1.60949 -0.335949,2.52812 0.484145,4.23789 -3.302718,5.03069 -4.798972,8.19036 -2.788338,-0.6991 -4.719812,-1.2646 -7.646037,-1.1631 -1.151607,0.04 -3.162058,0.423 -4.227007,0.8633 -1.012203,-0.4912 -1.894471,-0.7247 -2.874712,-0.8654 -0.979905,-1.38787 -2.032333,-2.74177 -3.293578,-3.88679 -0.709123,-0.64377 -1.564441,-1.1506 -2.511116,-1.31829 -1.552891,-0.27506 -2.537767,-0.58419 -4.818108,0.78459 1.793627,-0.25605 3.526324,-0.30332 5.005219,0.47841 0.900826,0.47621 1.703131,1.04601 2.389919,1.75421 0.750042,0.7733 1.403315,1.63557 2.030579,2.51107 -0.227052,0.1339 -0.436541,0.296 -0.599605,0.5167 -0.730242,0.7585 -0.51702,1.3027 -0.176481,2.8598 0.19971,-1.5306 0.985499,-2.2603 1.596823,-2.5069 1.195799,-0.024 2.788726,0.3947 3.380756,1.2375 1.843952,-0.8752 4.018648,-1.3055 5.976921,-0.8526 2.020764,0.4673 4.093444,0.8241 5.985426,1.6755 1.114955,0.5017 2.853088,1.1859 3.599761,2.207 2.58991,3.5418 3.578804,8.6681 2.574902,12.9426 -0.890041,3.7897 -3.254553,6.9926 -6.283102,9.3513 -1.61688,-0.4359 -3.384617,-1.6596 -5.034987,-1.4055 -1.809255,0.2786 -2.851336,-0.122 -4.983957,2.3687 1.658763,-1.0316 3.391714,-1.5934 5.181699,-1.4097 1.503516,0.1542 3.099315,0.8231 4.511927,1.3182 2.14349,0.7514 2.893766,2.7697 5.183826,3.1916 -0.27113,0.5312 -0.544099,2.4514 0.435883,3.3637 -0.440946,-0.2662 -2.58267,-0.5532 -3.059691,-0.7484 -0.02543,-1.9291 -1.236589,-2.637 -2.472841,-2.0519 0.260215,0.2283 0.974764,0.5335 1.284262,0.674 0.374032,0.2185 0.454511,1.4272 0.61449,1.8031 0.975265,0.4975 2.470407,0.4526 3.259558,1.0653 0.249866,0.4155 0.698069,1.261 0.992965,1.7669 -0.748966,0.1084 -1.091329,0.1955 -1.331041,0.9526 -0.185715,0.5865 -0.534231,1.3196 -0.603858,1.5713 -0.374671,-0.1944 -0.792373,-1.2102 -1.129044,-1.3523 -0.553423,-0.8932 -1.26282,-1.7072 -2.179419,-2.2369 -0.266713,-0.1541 -0.640801,-0.05 -0.890903,-0.2466 -0.834664,-0.6547 -1.113055,-1.6074 -2.215565,-2.6366 0.449937,0.9342 0.71902,1.9613 1.337418,2.8088 0.181365,0.2486 0.344298,0.5345 0.59748,0.7102 0.550187,0.3817 0.927257,0.4349 1.384197,0.9419 0.364882,0.4049 1.194715,1.0155 1.452236,1.4161 -0.99898,0.357 -2.121831,1.2657 -2.170913,2.341 -2.005985,-1.3793 -3.89965,-3.5479 -5.798315,-2.1028 -0.04885,1.0526 -0.399055,1.9763 -0.895156,2.8343 -0.339774,-0.8656 -0.859508,-1.6808 -1.817954,-1.8924 -0.808489,-0.1785 -1.860833,0.1594 -2.494104,0.5039 -0.512946,-0.5651 -0.09359,-2.9659 0.425252,-4.0909 -1.561624,0.1234 -2.36844,0.9611 -4.337573,1.7648 -0.01356,-0.86 -1.220729,-2.8268 -1.80945,-3.419 0.497195,-0.4351 1.330066,-1.0751 1.273631,-1.6798 3.454803,-0.5773 1.9609,-3.7021 4.008004,-5.7537 -1.766766,-3.5726 1.514068,-6.6234 2.523872,-8.5369 1.009802,-1.9135 2.392038,-3.057 3.901689,-4.2929 0.453356,-0.3712 2.64442,-1.1664 3.127731,-1.3289 -2.091643,-0.9838 -4.679608,1.3504 -5.345421,2.1071 -0.511567,0.5814 -0.981809,1.1941 -1.437353,1.8201 -0.733167,-0.6052 -1.426177,-0.7075 -2.113504,-0.5337 -0.266943,-1.3265 -0.33585,-2.6639 -0.493293,-4.008 -0.103508,-0.8837 -1.335946,-1.6796 -1.005722,-2.56 0.162062,-0.4321 0.507358,-2.2121 0.304056,-2.4155 -0.119133,-0.074 -0.751871,1.3988 -0.837747,1.5097 -0.816106,1.0539 0.354515,2.404 0.771833,3.5274 0.219764,0.5917 -0.104815,1.1734 -0.01488,1.8116 0.0555,0.3939 0.211074,1.5272 -0.05316,1.5139 -0.952724,-0.41 -1.500867,-0.4825 -1.930644,-1.3693 -0.349235,-0.7206 -0.266374,-2.4497 -0.68253,-3.8804 -0.04043,0.9094 -0.618336,3.0296 -0.316814,4.0462 0.578073,1.2111 1.652707,1.9031 2.645069,2.5813 -1.334525,0.8196 -2.75839,1.8746 -4.522557,1.4608 0.26884,-0.9968 0.423888,-2.0594 0.05103,-3.0406 -0.280172,-0.7373 0.273939,-1.2113 0.612363,-1.7733 0.590186,-0.9801 0.524315,-2.1407 0.720802,-3.2468 0.136814,-0.7701 0.980042,-1.3772 0.99509,-2.1985 0.03545,-1.9341 -0.734717,-2.1026 -1.866857,-3.6317 -0.002,1.2804 1.067894,2.3753 0.73356,3.6763 -0.170592,0.6638 -0.802852,1.1231 -0.997217,1.7499 -0.283572,0.9146 0.219078,1.9711 -0.32957,2.8513 -0.331326,0.5316 -0.906472,0.9142 -1.118414,1.5012 -0.365566,1.0125 0.525334,1.4674 0.384854,2.5579 -0.06052,0.4697 -1.165355,1.672 -1.035489,2.7747 -3.064478,1.8289 -5.000901,5.0249 -8.945183,5.9451 -3.917665,0.914 -8.311468,-2.1038 -11.500948,1.4012 -4.098352,2.0828 -9.063203,3.3991 -13.722892,2.8726 -0.918243,-0.3882 -1.809557,-0.4519 -2.693973,-0.3828 0.355528,-0.4467 0.705646,-0.8975 1.12054,-1.1992 0.446074,-0.3243 1.766681,-0.066 2.385665,-0.725 0.67955,-0.7233 1.546747,-1.3207 2.479221,-1.6288 1.087431,-0.3592 2.462727,-0.1081 3.557236,-0.4231 1.166781,-0.3359 3.362702,-1.1267 4.701163,-2.173 1.693426,-1.3238 2.145398,-3.2 2.145398,-3.2 0,0 1.610493,-0.059 2.232575,-0.7868 0.888296,-1.5174 2.16304,-3.7288 1.34805,-4.9201 -0.159198,1.0819 -0.905226,2.9691 -1.800944,3.9633 -0.776044,0.8613 -1.653311,0.8716 -2.504735,1.3098 -0.354945,0.754 -0.475516,1.5771 -1.012101,1.9434 -1.663105,1.4882 -3.306638,2.2241 -5.40921,2.8428 -1.646222,0.4844 -3.808912,0.3928 -5.311401,1.1928 -0.978492,0.5211 -1.697265,1.5056 -2.847065,1.7627 -1.35705,0.3035 -1.802851,2.1085 -3.21278,2.3899 -1.662952,0.3645 -3.353755,0.7657 -5.200836,0.094 -3.094747,3.2881 -7.442867,2.025 -10.678085,0.2424 -1.730021,-0.9533 -2.607407,-4.0128 -1.596823,-5.524 0.286503,0.6932 0.89677,1.7684 1.375692,2.105 0.57449,1.0654 1.333658,-0.3486 2.228322,0.2424 1.513291,0.3937 2.952351,1.1801 4.365215,1.8243 0.235635,-1.3028 1.696803,-1.4801 2.747129,-0.7527 0.910278,-1.2539 0.937124,-1.8876 1.779682,-3.2681 1.144457,-0.903 3.459458,0.8433 4.443886,-0.6995 0.981606,-0.1168 2.313757,0.2084 2.876831,-1.0227 1.082197,-1.5971 2.746945,-0.2944 4.175979,-0.8357 1.620593,-0.2399 2.949435,-1.213 3.982487,-2.3941 1.414152,-1.6701 2.590012,-3.7076 4.943559,-4.0038 1.098651,-1.6041 1.618594,-3.6792 3.459427,-4.6501 1.007834,-0.2961 1.318698,-2.4197 1.356555,-3.3446 0.742214,-1.2574 1.470046,-0.8481 2.591912,-1.4289 0.623726,-0.6777 2.569774,-0.9072 3.499827,-0.8951 -1.058419,-0.663 -2.77595,-0.5327 -4.343953,-0.2127 -0.409005,0.2752 -1.084446,0.2578 -1.630842,0.6358 0.09345,-0.5285 0.03245,-0.7411 -0.274288,-1.2609 0.576738,-0.085 1.188078,-0.5776 1.649979,-0.9462 0.957671,-0.7642 1.445651,-1.936 2.368656,-2.2432 0.473847,-0.1577 0.998783,0.1066 1.730776,0.4636 0.58628,0.2859 1.050983,0.7688 2.525999,1.8562 -0.131023,-1.122 -0.813377,-1.9745 -1.322535,-2.3687 -0.608848,-0.4714 -1.589555,-0.9391 -2.851317,-1.112 -1.261743,-0.1729 -1.596667,1.2613 -2.353771,1.9561 -0.733199,0.673 -1.979821,0.8055 -2.985271,0.572 -2.211293,0.4573 -2.243669,-0.031 -3.880428,0.1212 -1.212943,0.022 -2.733554,-0.7656 -3.793249,-1.2779 -0.871287,0.5072 -1.905239,1.2247 -2.796035,1.6904 -1.06059,0.3849 -1.453581,0.8895 -2.445201,0.1169 -0.269742,-0.3007 -1.596208,-1.3643 -2.315499,-1.5925 -0.522579,-0.079 -1.829453,-0.1483 -2.468589,-0.2318 -1.968209,-1.3982 -5.88782,-1.7429 -7.514208,0.6953 -3.738392,-0.4588 -6.775504,0.4986 -9.468242,-1.7499 -2.075667,0.067 -5.3237045,-1.2188 -5.6048255,-2.6323 -0.09828,-0.4942 1.3191615,-1.07357 2.1539025,-1.91147 0.75373,-2.66275 4.006621,-3.64342 5.870608,-5.13495 2.742325,0.0257 6.889842,-0.0967 7.588627,3.38075 2.034929,0.7907 5.263661,0.1403 7.273941,-0.93555 3.058701,0.87314 3.857424,-2.97842 5.762168,-3.82727 0.735669,-0.32785 1.636473,-0.20694 2.895969,0.80585 0.844763,-0.64697 1.756153,-0.93686 2.708857,-1.02911 0.938865,-0.0909 2.206888,0.13335 2.891716,0.67615 0.517958,-0.69837 1.080779,-1.35188 2.113503,-1.55429 1.100627,-0.21573 2.55484,0.4993 3.142615,0.59109 0.05465,-0.57619 0.09075,-1.39651 0.482661,-1.72865 0.356003,-0.30169 1.33657,-0.33548 1.80307,-0.34658 -0.160645,-0.86441 -0.506419,-2.91044 -0.0489,-4.008 0.29189,-0.70023 1.460224,-1.1167 1.756293,-1.70313 -0.05156,-0.81216 -0.365021,-1.65408 0.05316,-2.3878 0.356588,-0.62566 1.373066,-0.66516 1.71802,-1.11416 0.01563,-0.8141 -0.135899,-1.75955 0.338075,-2.44945 0.462623,-0.67337 1.470585,-0.83726 1.975297,-1.35656 0.252738,-0.86006 0.379616,-1.9809 1.194959,-2.48559 0.740726,-0.33814 1.560198,-0.40935 2.362277,-0.46566 -0.09206,-0.67413 0.05597,-1.70795 0.941933,-2.16878 0.715867,-0.9031 2.15785,-1.58431 3.718832,-2.60042 1.560982,-1.01611 2.867606,-2.38269 3.621023,-4.14621 -0.246369,-0.85967 0.230825,-1.54086 0.537945,-2.30062 0.219507,-0.62427 0.381743,-0.87474 0.546449,-1.47349 0.353159,-1.78076 -0.654062,-3.40824 -1.413965,-4.94144 -0.32862,0.50335 -0.585203,1.06166 -1.009974,1.49477 -0.383463,-1.29633 -1.300026,-2.74947 -2.815169,-2.7365 -0.491727,-0.0223 -0.985875,-0.0308 -0.693162,0.5911 0.312862,1.35378 -0.82672,-0.48439 -1.324661,-0.78672 -0.731862,-0.6519 -1.7435,-1.6796 -2.796034,-1.09715 -0.806225,0.31713 0.295563,2.35573 -0.788843,1.48413 -1.142905,-0.75335 -2.288975,-1.64743 -3.663548,-1.90938 -0.56259,-0.11528 -1.932503,0.16386 -1.647853,0.92705 0.09969,0.61113 -0.02619,0.99433 0.04252,1.40333 -1.313609,-0.88743 -2.124127,-1.41971 -3.703946,-1.64998 -0.559892,-0.0816 -2.506708,0.23227 -1.885995,0.60173 0.505292,0.41458 1.519719,2.00875 0.33595,1.28427 -1.603441,-0.69492 -2.956588,-1.22697 -4.741563,-1.10141 -0.06669,1.10312 -0.574044,2.3606 -0.744192,2.59191 -0.446287,-0.1305 -1.100393,-1.28635 -1.503267,-1.57556 0.746378,-0.81015 0.525132,-2.53943 0.05954,-3.76348 1.283533,-0.11478 2.543579,0.86243 3.438165,1.85835 1.623244,-0.42961 1.457906,-2.85056 1.201338,-3.65291 1.12655,0.32505 1.99173,2.41622 2.985271,3.368 1.324002,-0.4051 0.822801,-3.58602 1.375691,-3.83365 0.84743,-0.008 1.807453,1.92263 4.099432,2.98739 1.013838,-1.09842 1.135597,-2.26115 1.063132,-3.85491 z m -19.840147,4.28016 c 1.921188,0.61047 3.32531,1.55948 4.514054,2.78753 0.925524,0.96961 1.839962,2.19601 3.255306,2.45796 0.524651,-0.98749 0.960682,-2.13553 0.848378,-2.92574 1.059893,0.10689 4.137998,1.14863 5.117912,1.54367 -0.873432,0.53906 -1.770941,0.58406 -2.396297,1.44373 -0.305281,0.41967 -0.04995,1.99062 -0.0723,2.55364 -0.04943,1.24573 -1.09899,2.22526 -0.650636,3.43179 0.143089,0.38505 0.354264,0.74375 0.455019,1.14393 -2.305365,0.70663 -4.793903,1.039 -7.205899,1.26512 0.418326,-1.54088 0.585954,-3.15701 0.229635,-4.72455 -0.117574,-0.51725 -0.156931,-1.1036 -0.48904,-1.51603 -0.744518,-0.92458 -1.625973,-1.81989 -1.437352,-2.94912 0.188622,-1.12923 -0.337254,-3.19792 -2.168783,-4.51193 z m 19.325592,0.85476 c 0.415122,0.0291 0.92234,0.32633 1.129044,0.44652 1.198876,0.49189 1.686661,1.52122 2.793907,2.16666 0.03535,1.29947 -0.595611,2.52376 -1.384195,3.52321 -0.267934,0.31953 -0.546633,0.63224 -0.729308,1.0121 -0.449949,0.80126 -0.62965,1.81466 -0.229636,2.67271 0.0578,0.1402 0.126844,0.27402 0.201994,0.40399 -2.257887,0.17385 -4.530465,0.4988 -6.846562,0.0425 -0.685008,0.37913 -1.411623,0.69184 -2.158155,0.96745 -0.165822,-0.65955 -0.64692,-1.20825 -0.695288,-1.903 -0.06297,-0.90445 0.782648,-1.50138 0.66552,-2.38992 -0.126322,-0.95827 -0.326769,-1.80447 -0.10844,-2.05184 0.177378,-0.20097 2.551713,-1.39374 2.757761,-1.83071 -0.171592,-0.69867 -0.202997,-0.78895 -0.718676,-1.26087 -0.279893,-0.25615 -0.698186,-0.50702 -0.839874,-0.93769 1.853776,-0.50676 4.53469,1.68004 5.549543,2.13477 0.190512,-0.51959 0.173468,-0.44918 0.274288,-1.40546 -0.184946,-0.52247 -0.480177,-1.22568 -0.0319,-1.5139 0.103323,-0.0664 0.231586,-0.0863 0.369974,-0.0765 z m 5.660107,0.88665 c 1.120519,0.68239 1.832482,1.84807 2.864075,2.62381 0.737527,0.5839 1.671236,-0.24333 1.4331,-1.06951 1.124564,0.32299 0.98392,1.81882 1.726525,2.51537 0.778621,0.70345 1.41193,-1.1224 1.596821,0.20199 0.457786,0.87025 0.302309,1.86468 -0.11907,2.70673 -0.26137,0.70086 -0.309291,0.8281 -0.640004,1.45011 -0.145401,1.0858 -0.244029,2.12447 -1.048248,3.00016 -0.219815,0.31374 -0.460583,0.61631 -0.714424,0.90791 -0.02868,-0.80218 -0.673282,-1.56791 -2.306993,-2.16879 -1.803466,-0.83091 -3.599859,-0.96456 -5.402831,-0.89728 -0.251594,-0.35739 -0.494248,-0.71972 -0.595353,-1.15031 -0.140155,-0.64917 0.230076,-1.25928 0.582596,-1.7733 -0.06569,0.0835 0.25613,-0.2933 0.323191,-0.38273 0.922656,-1.15172 1.631583,-2.56447 1.652105,-4.06328 0.574817,-0.42269 0.281321,-1.85508 0.64851,-1.90088 z m -28.041136,0.5507 c 0.303946,-0.0253 0.602208,0.0121 1.124792,0.23602 1.062079,0.45504 1.612693,1.01524 2.487726,2.1539 0.613826,1.0399 1.30569,2.49506 1.730777,2.98315 0.425088,0.48808 0.666037,1.44173 0.697414,1.53728 0.460086,1.87187 0.118675,3.22951 -0.325318,4.72456 -2.371448,0.67044 -4.305245,2.19729 -6.208684,3.75285 -0.163145,-0.1989 -0.285557,-0.46489 -0.3806,-0.68253 -0.242282,-0.55479 -0.467862,-1.12553 -0.593227,-1.71589 -0.254604,-1.19898 0.318181,-2.41965 0.265782,-3.62953 -0.05277,-1.21848 -0.942404,-2.38937 -1.849847,-3.11285 -0.907449,-0.72348 -1.754976,-2.74955 -2.334636,-3.76136 1.076223,-0.29448 5.062393,1.22384 5.987552,2.25171 0.578227,-1.35512 -1.178468,-3.0684 -1.766923,-4.5991 0.551151,-0.0255 0.861244,-0.11293 1.165192,-0.13821 z m -9.408707,4.43538 c 0.646586,0.0308 3.284899,0.71224 4.124946,1.09928 0.840049,0.38704 1.631125,1.75074 2.056095,2.20493 0.447119,0.47787 0.91766,1.06216 0.907914,1.70739 -0.01969,1.30361 -0.58162,2.64562 -0.182858,3.9187 0.29206,0.93243 0.560716,1.91612 1.17157,2.70036 -1.081087,0.87797 -2.032411,2.0828 -3.344609,2.39629 -2.987287,0.71369 -6.472741,1.0001 -9.559672,0.7527 0.361002,-0.74151 0.944414,-2.41037 0.912166,-3.24468 -0.03218,-0.83243 -0.433145,-1.58243 -0.733561,-2.35164 -0.442606,-1.13331 0.03104,-2.17911 0.350834,-3.19152 0.424774,-0.90195 -0.31575,-2.04472 -1.141803,-3.88681 1.721522,0.17595 4.760397,1.64899 7.088957,1.89875 -0.132084,-0.94708 -0.867716,-2.94587 -1.649979,-4.00375 z m -8.979203,3.94422 c 0.75889,0.99693 2.754921,1.76043 3.58275,1.91363 -0.276136,0.84348 -0.556604,1.68765 -0.516681,2.58554 0.0241,0.54213 0.187912,1.07436 0.463525,1.54367 0.598832,1.01966 0.371586,2.19216 0.09994,3.10008 -0.243249,0.84422 -1.18452,1.11859 -1.74566,1.5054 -2.139314,0.11954 -3.841142,-0.48694 -5.5623,-1.1333 -2.309036,-0.86713 -4.4601085,-1.23412 -7.4971977,-1.86473 -1.2507683,-0.25971 -3.5022572,-1.51063 -2.8640742,-3.01504 0.2355649,-0.55531 2.8275065,0.33518 2.8513166,0.068 0.084381,-0.9467 0.1404347,-2.23167 0.7505703,-2.31975 0.9538515,-0.1377 3.0600885,2.04736 3.852786,1.85835 1.101398,-0.26261 1.059878,-1.47779 1.316155,-3.08308 1.618049,0.89979 3.240062,1.57899 5.19871,2.59829 0.18148,-0.79162 0.3678,-2.30458 0.07016,-3.7571 z m 42.391276,6.34051 c 1.326749,-0.0581 2.784816,0.49927 3.829397,0.72718 -0.480119,0.77304 -0.71149,1.04835 -0.956818,2.2262 -0.595656,0.0915 -2.438823,0.30102 -2.785403,0.7123 -1.855076,-0.22979 -4.198495,-0.16913 -5.640971,0.68465 0.274832,-0.78428 0.979722,-1.69143 1.469247,-2.25809 0.86236,-0.99823 2.843319,-2.03786 4.084548,-2.09224 z m -1.556424,4.78622 c 0.41517,0.009 0.745783,0.0536 0.948313,0.13395 -0.129939,0.35255 -0.22937,0.7156 -0.308308,1.05888 -0.768255,0.34986 -1.591988,0.85378 -2.051842,1.56918 -0.237646,0.3697 -0.425368,1.51836 -0.219005,2.20068 -0.669436,0.26906 -1.25973,0.72922 -1.694631,1.48838 -0.349054,0.60931 -0.186141,1.56491 -0.161595,2.37291 -1.038753,0.61448 -1.337345,1.3554 -1.486257,1.684 -0.496038,1.09459 -0.401933,2.41611 -0.231763,3.59338 -0.441643,0.003 -0.846282,0.13622 -1.184327,0.36572 -0.413299,0.28059 -0.727018,0.70538 -0.886651,1.21622 -0.693056,-0.3688 -1.518955,-0.61259 -2.294237,-0.49542 -1.154616,0.17451 -1.018242,0.48464 -2.25809,1.77968 -0.641067,-1.01482 -2.133653,-1.61015 -3.642285,-1.05037 1.206165,-2.23194 1.572834,-5.16353 3.44029,-7.1251 0.874165,-4.01594 4.294468,-6.26821 6.468089,-7.50996 1.498435,-0.85603 4.316802,-1.30827 5.562299,-1.28213 z m 43.679788,12.007 c 0.045,9.9e-4 0.0745,0.009 0.11695,0.0127 0.3517,0.20009 0.68203,0.41759 0.96532,0.66552 0.40062,0.35063 1.22792,1.53289 1.09503,1.98168 -0.43633,-0.29969 -2.0059,-0.85057 -3.2383,-1.08865 0.0511,-0.38485 0.20761,-0.80209 0.34871,-1.12904 0.0871,-0.37383 0.41633,-0.44881 0.71229,-0.44226 z m -2.668751,2.85744 c 0.18969,-0.0964 0.70488,0.25311 0.88349,0.73948 0.41862,0.66104 0.50244,1.67478 0.39894,3.0519 -0.51734,0.35281 -1.87204,-0.56696 -2.47922,-1.72865 -0.0799,-0.5245 0.13207,-1.3754 0.57622,-1.66912 0.16371,-0.10826 0.25198,-0.20631 0.62057,-0.39361 z m -2.57886,2.72399 c -0.15178,0.82364 -0.114777,1.92377 -0.376348,2.4771 -0.435277,-0.15893 -1.159141,-1.15903 -1.552172,-1.84985 0.08438,-0.52249 0.02077,-1.11713 0.73638,-1.28275 0.658534,-0.15242 0.852886,0.38391 1.19214,0.6555 z m -63.366845,13.69523 c 0.936517,0.082 1.721281,0.726 2.351645,1.3991 1.253164,1.0298 3.001805,0.7837 4.401362,0.2254 0.756475,-0.2843 1.398711,-0.8106 2.107125,-1.1971 0.583345,-0.4383 1.245623,0.4417 1.894499,0.4529 1.062168,0.4228 2.20213,0.2356 3.306336,0.2934 0.655322,-0.4292 1.434781,0.085 2.196428,0.1254 0.05415,0.3701 0.3615,0.3966 0.525186,0.9101 0.08281,0.7234 -0.03957,0.1535 -0.501797,1.0525 -0.24161,0.4515 -0.324734,0.9552 -0.393358,1.4565 -0.164605,1.0865 -0.638548,2.119 -1.430975,2.4026 -1.275095,1.0019 -1.809802,2.5744 -2.611048,3.9209 -2.292888,0.5199 -3.868066,2.3998 -5.266751,4.1504 -0.562874,0.5319 -1.946674,2.1801 -3.38926,2.2092 -1.629075,-0.4044 -3.647412,0.1327 -5.115786,1.8095 -1.603108,-0.5448 -2.69496,1.0817 -4.309931,0.4188 -0.263264,-0.106 -0.994065,0.3192 -1.900878,0.3551 -0.906813,0.036 -1.564553,1.9637 -1.70101,2.8088 -1.160508,-0.8882 -2.241061,0.5358 -3.04268,0.538 -0.500537,-0.2373 -0.980377,-0.5983 -1.473499,-0.925 0.511706,-1.4575 1.903964,-2.4689 2.987397,-3.5657 1.409733,-1.4271 3.063279,-2.8239 4.684155,-3.991 2.63523,-1.8975 4.55679,-3.6591 7.499324,-5.0881 1.352255,-0.6568 2.775232,-1.8069 2.053968,-4.4163 -0.28636,0.3287 -0.32594,2.137 -1.092898,2.475 -0.817792,0.3604 -1.901272,1.0144 -2.683342,1.4331 -2.601207,1.3926 -4.739947,3.4712 -7.17188,5.1136 -2.624237,1.7724 -5.293477,3.7399 -6.863572,6.5383 -0.132866,0.2368 -0.32541,0.5878 -0.457147,0.9334 -0.139,-0.052 -0.280167,-0.095 -0.425252,-0.1233 -0.589777,-0.1159 -1.336385,0.2235 -1.947655,0.4316 -0.837497,-0.4095 -0.85871,-1.1891 -1.173696,-1.7286 0.258085,-0.1316 1.141498,-0.733 1.894498,-1.6287 1.817338,-2.1618 3.950673,-3.0782 5.715391,-5.2583 1.037811,-1.2821 5.812108,-4.7771 6.215063,-5.76 3.063312,-1.7643 5.332691,-4.772 5.120038,-7.7715 z m -1.607454,0.5635 c 0.853331,2.1219 -2.625651,5.1226 -4.722427,6.8295 -1.310279,0.095 -3.511676,0.1381 -4.794719,0.4061 1.004831,-1.0517 2.411192,-1.9168 3.512583,-2.6854 -1.349983,0.1099 -3.954332,-0.086 -5.500638,0.54 0.948328,-1.3194 5.601963,-1.8757 6.257588,-1.9646 -1.16565,-0.038 -3.269026,-0.2718 -4.214251,-0.6443 1.29166,-0.7931 2.746752,-0.8668 4.405614,-0.5592 0.91611,-0.54 1.785262,-0.5901 2.751383,-0.049 0.491578,-0.5152 1.60913,-1.6756 2.304867,-1.8732 z m 62.486574,27.0609 c 1.318985,0.2213 3.483945,1.5807 3.918695,3.5955 -1.463457,-0.7654 -3.053105,-0.7659 -3.567863,-0.5741 -0.791329,-0.4682 -0.741419,-2.3229 -0.350832,-3.0214 z m -23.076317,4.1037 c 0.57685,0.4489 1.687599,2.2236 1.588317,2.9746 -0.707427,0.2268 -2.647342,0.5483 -3.367998,1.701 -1.352157,-0.8191 0.454918,-3.8438 1.779681,-4.6756 z m 23.644028,1.8753 c 1.119754,0.6733 1.718383,1.7855 1.845596,3.3765 -1.355784,-1.3305 -2.803638,-0.5531 -3.329726,-0.8547 -0.293374,-0.5983 0.319735,-2.3732 1.48413,-2.5218 z m -3.514711,2.105 c 0.895613,0.9095 2.272136,4.7601 1.158813,6.3427 -0.257952,-0.2852 -2.301352,-1.8649 -3.32122,-3.9357 -0.406187,-1.2059 1.404555,-2.3928 2.162407,-2.407 z m -12.134574,1.4119 c 0.179282,-0.015 0.354321,-0.011 0.520935,0.01 0.222151,0.026 0.427926,0.083 0.601731,0.1658 0.582102,0.2765 1.073507,1.0371 1.288515,1.6075 -0.358397,1.2028 -2.289823,4.087 -3.080953,4.935 -0.435822,-1.3532 -1.423994,-4.5463 -0.867514,-6.0683 0.431206,-0.3999 0.999443,-0.6047 1.537286,-0.6485 z"
       id="path4300"
       inkscape:connector-curvature="0"
       sodipodi:nodetypes="cccccccccccccccccccccccscsssccscscsssssssccscsscccccccccccscscccscscsccscccsccccccsccccccccsccscscsscscscscscsccccscscscscscscssssscscscscscccscscscscccscscsssssscscscssccccccccscccccccsccccscsssscsccsscsscccccsssscscssccccccccsccsccsssccccsccccccsscsccsscssscscccccssscssssscscccccccscccccccscccsccccccccccccccccccssscssscccccccccsccccscscscscscscsccccscccccccccccccscccccccccccccccccscsccsssccccccccccssscscccsccccccccccccccccccscscccsssscccccsssscscssccccccssccsssssscccsccccsssccscscscscscccssscscccsscccsscccscccccccccccccccccscccsscccsssccccssccccccccccccccccccccccccccccccsccccc" />
    <g
       id="g4378"
       style="fill:#ffffff"
       transform="matrix(1.0886459,0,0,1.0886459,-3.5561632,-86.592417)">
      <path
         sodipodi:nodetypes="cccc"
         inkscape:connector-curvature="0"
         id="path4280"
         d="m 13.700194,1022.4869 c -0.07033,-1.5511 0.526852,-1.9896 1.149049,-2.3865 0.433006,1.1749 1.304864,2.985 0.618717,3.7123 -1.03319,0.1844 -1.186414,-0.092 -1.767766,-1.3258 z"
         style="fill:#ffffff;fill-rule:evenodd;stroke:#000000;stroke-width:1px;stroke-linecap:butt;stroke-linejoin:miter;stroke-opacity:1" />
      <g
         style="fill:#ffffff"
         id="g4353">
        <path
           style="fill:#ffffff;fill-rule:evenodd;stroke:#000000;stroke-width:1px;stroke-linecap:butt;stroke-linejoin:miter;stroke-opacity:1"
           d="m 17.147339,1020.8959 c -1.053936,-0.1557 -1.11332,-0.8917 -1.237437,-2.2096 -1.4e-4,-0.9132 -1.067578,-2.9213 0.176778,-3.7124 1.024922,-0.021 1.114064,1.9074 1.679378,2.5633 0.657502,0.7629 1.325825,1.7678 1.325825,1.7678 -0.03903,1.1394 -0.72728,1.6297 -1.944544,1.5909 z"
           id="path4256"
           inkscape:connector-curvature="0"
           sodipodi:nodetypes="cccscc" />
        <path
           style="fill:#ffffff;fill-rule:evenodd;stroke:#000000;stroke-width:1px;stroke-linecap:butt;stroke-linejoin:miter;stroke-opacity:1"
           d="m 37.034718,1004.6325 c -0.184647,0.929 -0.186275,2.1109 0.972272,2.9168 0.79338,-1.1038 1.329653,-2.3512 1.237436,-3.0936 z"
           id="path4260"
           inkscape:connector-curvature="0"
           sodipodi:nodetypes="cccc" />
        <path
           style="fill:#ffffff;fill-rule:evenodd;stroke:#000000;stroke-width:1px;stroke-linecap:butt;stroke-linejoin:miter;stroke-opacity:1"
           d="m 32.703689,1002.8648 c -0.154949,1.5146 0.125815,2.7867 1.149048,3.3587 0.6286,-0.7333 0.683139,-1.8641 0.618718,-2.8284 z"
           id="path4262"
           inkscape:connector-curvature="0"
           sodipodi:nodetypes="cccc" />
        <path
           style="fill:#ffffff;fill-rule:evenodd;stroke:#000000;stroke-width:1px;stroke-linecap:butt;stroke-linejoin:miter;stroke-opacity:1"
           d="m 13.87697,1001.7157 c -0.05023,1.6828 0.211731,2.0635 0.972272,3.2704 0.837869,-0.8021 1.951593,-1.3627 1.149048,-3.0052 -1.001985,-0.3479 -2.12132,-0.2652 -2.12132,-0.2652 z"
           id="path4264"
           inkscape:connector-curvature="0"
           sodipodi:nodetypes="cccc" />
        <path
           style="fill:#ffffff;fill-rule:evenodd;stroke:#000000;stroke-width:1px;stroke-linecap:butt;stroke-linejoin:miter;stroke-opacity:1"
           d="m 17.67767,1003.2183 c 0.03393,0.9972 0.570876,2.1102 1.414214,3.0052 0.393888,-0.8696 1.147147,-1.0875 1.149048,-2.7401 -0.854421,-0.9615 -1.708841,-0.3977 -2.563262,-0.2651 z"
           id="path4266"
           inkscape:connector-curvature="0"
           sodipodi:nodetypes="cccc" />
        <path
           style="fill:#ffffff;fill-rule:evenodd;stroke:#000000;stroke-width:1px;stroke-linecap:butt;stroke-linejoin:miter;stroke-opacity:1"
           d="m 26.604893,1002.8647 c -0.322226,1.836 0.0627,4.2611 0.883883,4.5079 0.785361,-0.036 1.336387,-2.4686 2.386485,-5.5685 -0.937864,-0.5451 -3.373218,0.6203 -3.270368,1.0606 z"
           id="path4270"
           inkscape:connector-curvature="0"
           sodipodi:nodetypes="cccc" />
        <path
           style="fill:#ffffff;fill-rule:evenodd;stroke:#000000;stroke-width:1px;stroke-linecap:butt;stroke-linejoin:miter;stroke-opacity:1"
           d="m 11.136932,1000.0363 c -1.083321,1.3553 -1.6124741,4.2132 0.176777,5.3917 0.546468,0.2488 0.966064,-3.4257 1.59099,-4.5078 z"
           id="path4272"
           inkscape:connector-curvature="0"
           sodipodi:nodetypes="cccc" />
        <path
           style="fill:#ffffff;fill-rule:evenodd;stroke:#000000;stroke-width:1px;stroke-linecap:butt;stroke-linejoin:miter;stroke-opacity:1"
           d="m 16.086679,1024.9618 c -0.04767,-0.8249 -0.09525,-1.6499 1.237437,-2.4748 0.988277,1.4029 1.249375,2.515 1.06066,3.4471 -0.589256,0.093 -1.708841,0.6512 -2.298097,-0.9723 z"
           id="path4274"
           inkscape:connector-curvature="0"
           sodipodi:nodetypes="cccc" />
        <path
           style="fill:#ffffff;fill-rule:evenodd;stroke:#000000;stroke-width:1px;stroke-linecap:butt;stroke-linejoin:miter;stroke-opacity:1"
           d="m 19.622213,1026.1109 c -0.214629,-0.7627 0.109843,-1.8647 1.060661,-3.0936 1.454633,1.1316 1.811444,1.941 1.414213,3.5356 -0.811417,0.3924 -1.898183,0.4246 -2.474874,-0.442 z"
           id="path4276"
           inkscape:connector-curvature="0"
           sodipodi:nodetypes="cccc" />
        <path
           style="fill:#ffffff;fill-rule:evenodd;stroke:#000000;stroke-width:1px;stroke-linecap:butt;stroke-linejoin:miter;stroke-opacity:1"
           d="m 23.599689,1026.0225 c -0.529628,-0.8473 -0.123751,-1.9283 0.265165,-3.0052 0.978383,0.5361 1.758477,1.2043 2.032932,2.2097 -0.403834,0.6273 -0.749893,1.3125 -2.298097,0.7955 z"
           id="path4278"
           inkscape:connector-curvature="0"
           sodipodi:nodetypes="cccc" />
        <path
           style="fill:#ffffff;fill-rule:evenodd;stroke:#000000;stroke-width:1px;stroke-linecap:butt;stroke-linejoin:miter;stroke-opacity:1"
           d="m 41.012193,1003.3951 c 0.247902,1.2307 0.396835,2.1852 1.237438,3.2704 0.940079,-1.0018 1.18211,-1.7384 0.707106,-3.0937 z"
           id="path4284"
           inkscape:connector-curvature="0"
           sodipodi:nodetypes="cccc" />
        <path
           style="fill:#ffffff;fill-rule:evenodd;stroke:#000000;stroke-width:1px;stroke-linecap:butt;stroke-linejoin:miter;stroke-opacity:1"
           d="m 44.901281,1003.837 c -0.317155,1.3578 0.508973,2.442 0.795495,2.8285 1.548842,-0.8202 1.28712,-1.5769 1.325825,-2.8285 z"
           id="path4286"
           inkscape:connector-curvature="0"
           sodipodi:nodetypes="cccc" />
        <path
           style="fill:#ffffff;fill-rule:evenodd;stroke:#000000;stroke-width:1px;stroke-linecap:butt;stroke-linejoin:miter;stroke-opacity:1"
           d="m 33.587572,1022.5753 c -0.435892,-0.4175 -0.820401,-0.8484 0.08839,-2.3865 1.4786,0.075 1.775691,0.9375 1.856155,1.9445 -0.648181,0.4657 -1.296362,0.682 -1.944543,0.442 z"
           id="path4292"
           inkscape:connector-curvature="0"
           sodipodi:nodetypes="cccc" />
        <path
           style="fill:#ffffff;fill-rule:evenodd;stroke:#000000;stroke-width:1px;stroke-linecap:butt;stroke-linejoin:miter;stroke-opacity:1"
           d="m 26.162951,1022.7521 c -0.440172,-0.7816 -1.303372,-3.4731 0.08839,-4.6846 1.14536,0.3937 1.427352,2.4005 2.127401,3.1621 0.496959,0.5407 1.377886,1.3863 1.231356,1.7876 -0.192294,0.5273 -0.0168,0.9337 -1.325824,1.2376 -0.964138,0.3423 -1.47945,-0.3216 -2.121323,-1.5027 z"
           id="path4258"
           inkscape:connector-curvature="0"
           sodipodi:nodetypes="ccsccc" />
        <path
           style="display:inline;fill:#ffffff;fill-rule:evenodd;stroke:#000000;stroke-width:1px;stroke-linecap:butt;stroke-linejoin:miter;stroke-opacity:1"
           d="m 21.618236,1003.5857 c 0.03393,0.9972 0.305711,1.6683 1.06066,2.9168 1.277772,-0.6928 1.500701,-0.9991 1.502602,-2.6517 -0.854421,-0.9615 -1.708841,-0.3977 -2.563262,-0.2651 z"
           id="path4266-2"
           inkscape:connector-curvature="0"
           sodipodi:nodetypes="cccc" />
        <path
           style="display:inline;fill:#ffffff;fill-rule:evenodd;stroke:#000000;stroke-width:1px;stroke-linecap:butt;stroke-linejoin:miter;stroke-opacity:1"
           d="m 39.068545,1020.9278 c -0.503989,-0.3321 -1.932123,-2.2777 -1.31537,-3.9544 1.467911,-0.1927 2.887831,2.1932 3.148436,3.1692 -0.553653,0.5749 -1.152247,0.9044 -1.833066,0.7852 z"
           id="path4292-0"
           inkscape:connector-curvature="0"
           sodipodi:nodetypes="cccc" />
        <path
           style="display:inline;fill:#ffffff;fill-rule:evenodd;stroke:#000000;stroke-width:1px;stroke-linecap:butt;stroke-linejoin:miter;stroke-opacity:1"
           d="m 43.310853,1018.5391 c -0.527145,-0.2939 -1.007952,-0.6139 -0.516734,-2.3315 1.449669,-0.3006 1.954807,0.459 2.286795,1.4131 -0.509676,0.6142 -1.082291,0.9871 -1.77006,0.9184 z"
           id="path4292-5"
           inkscape:connector-curvature="0"
           sodipodi:nodetypes="cccc"
           inkscape:transform-center-x="-0.8784172"
           inkscape:transform-center-y="-0.36991285" />
        <path
           style="display:inline;fill:#ffffff;fill-rule:evenodd;stroke:#000000;stroke-width:1px;stroke-linecap:butt;stroke-linejoin:miter;stroke-opacity:1"
           d="m 46.699937,1015.7986 c -0.565174,-0.2119 -1.088409,-0.4563 -0.85953,-2.2281 1.388434,-0.514 2.001467,0.1616 2.472376,1.0553 -0.412114,0.6835 -0.922542,1.1378 -1.612844,1.1728 z"
           id="path4292-6"
           inkscape:connector-curvature="0"
           sodipodi:nodetypes="cccc" />
        <path
           style="display:inline;fill:#ffffff;fill-rule:evenodd;stroke:#000000;stroke-width:1px;stroke-linecap:butt;stroke-linejoin:miter;stroke-opacity:1"
           d="m 49.42811,1011.8322 c -0.576188,-0.1798 -1.112332,-0.3944 -0.983388,-2.1763 1.357357,-0.5911 2.007386,0.049 2.527778,0.9148 -0.373051,0.7055 -0.857141,1.1878 -1.544389,1.2615 z"
           id="path4292-2"
           inkscape:connector-curvature="0"
           sodipodi:nodetypes="cccc" />
        <path
           style="display:inline;fill:#ffffff;fill-rule:evenodd;stroke:#000000;stroke-width:1px;stroke-linecap:butt;stroke-linejoin:miter;stroke-opacity:1"
           d="m 20.837212,1017.9477 c -0.520186,-0.3061 -0.993445,-0.6371 -0.462531,-2.3429 1.456249,-0.2669 1.943637,0.5042 2.253413,1.4658 -0.523781,0.6022 -1.104889,0.9617 -1.79088,0.8771 z"
           id="path4292-8"
           inkscape:connector-curvature="0"
           sodipodi:nodetypes="cccc" />
        <path
           style="display:inline;fill:#ffffff;fill-rule:evenodd;stroke:#000000;stroke-width:1px;stroke-linecap:butt;stroke-linejoin:miter;stroke-opacity:1"
           d="m 24.395207,1014.8619 c -0.525404,-0.297 -1.799813,-1.8572 -1.298487,-3.5719 1.451414,-0.2921 2.747564,1.7079 3.073927,2.664 -0.513285,0.6111 -1.088087,0.9806 -1.77544,0.9079 z"
           id="path4292-69"
           inkscape:connector-curvature="0"
           sodipodi:nodetypes="cccc" />
        <path
           style="display:inline;fill:#ffffff;fill-rule:evenodd;stroke:#000000;stroke-width:1px;stroke-linecap:butt;stroke-linejoin:miter;stroke-opacity:1"
           d="m 27.859637,1012.1277 c -0.529292,-0.2901 -1.012438,-0.6065 -0.533866,-2.3277 1.44742,-0.3112 1.95813,0.4446 2.297126,1.3963 -0.505146,0.6179 -1.075003,0.995 -1.763258,0.9314 z"
           id="path4292-67"
           inkscape:connector-curvature="0"
           sodipodi:nodetypes="cccc" />
        <path
           style="display:inline;fill:#ffffff;fill-rule:evenodd;stroke:#000000;stroke-width:1px;stroke-linecap:butt;stroke-linejoin:miter;stroke-opacity:1"
           d="m 31.212571,1009.0321 c -0.527994,-0.2925 -1.009726,-0.611 -0.52349,-2.3301 1.448792,-0.3048 1.956129,0.4534 2.290882,1.4065 -0.507894,0.6157 -1.079425,0.9902 -1.76739,0.9236 z"
           id="path4292-87"
           inkscape:connector-curvature="0"
           sodipodi:nodetypes="cccc" />
      </g>
    </g>
  </g>
</svg>
