<svg xmlns="http://www.w3.org/2000/svg" xmlns:xlink="http://www.w3.org/1999/xlink" width="118.713" height="120.713" viewBox="0 0 111.293 113.168"><defs><pattern xlink:href="#a" id="b" patternTransform="translate(.078 946.445) scale(1.075)"/><pattern id="a" patternTransform="scale(10)" height="10" width="10" patternUnits="userSpaceOnUse"><circle r=".45" cy=".81" cx="2.567"/><circle r=".45" cy="2.33" cx="3.048"/><circle r=".45" cy="2.415" cx="4.418"/><circle r=".45" cy="3.029" cx="1.844"/><circle r=".45" cy="1.363" cx="6.08"/><circle r=".45" cy="4.413" cx="5.819"/><circle r=".45" cy="4.048" cx="4.305"/><circle r=".45" cy="3.045" cx="5.541"/><circle r=".45" cy="5.527" cx="4.785"/><circle r=".45" cy="5.184" cx="2.667"/><circle r=".45" cy="1.448" cx="7.965"/><circle r=".45" cy="5.049" cx="7.047"/><circle r=".45" cy=".895" cx="4.34"/><circle r=".45" cy=".34" cx="7.125"/><circle r=".45" cy="1.049" cx="9.553"/><circle r=".45" cy="2.689" cx="7.006"/><circle r=".45" cy="2.689" cx="8.909"/><circle r=".45" cy="4.407" cx="9.315"/><circle r=".45" cy="3.87" cx="7.82"/><circle r=".45" cy="5.948" cx="8.27"/><circle r=".45" cy="7.428" cx="7.973"/><circle r=".45" cy="8.072" cx="9.342"/><circle r=".45" cy="9.315" cx="8.206"/><circle r=".45" cy="9.475" cx="9.682"/><circle r=".45" cy="6.186" cx="9.688"/><circle r=".45" cy="6.296" cx="3.379"/><circle r=".45" cy="8.204" cx="2.871"/><circle r=".45" cy="8.719" cx="4.59"/><circle r=".45" cy="9.671" cx="3.181"/><circle r=".45" cy="7.315" cx="5.734"/><circle r=".45" cy="6.513" cx="6.707"/><circle r=".45" cy="9.67" cx="5.73"/><circle r=".45" cy="8.373" cx="6.535"/><circle r=".45" cy="7.154" cx="4.37"/><circle r=".45" cy="7.25" cx=".622"/><circle r=".45" cy="5.679" cx=".831"/><circle r=".45" cy="8.519" cx="1.257"/><circle r=".45" cy="6.877" cx="1.989"/><circle r=".45" cy="3.181" cx=".374"/><circle r=".45" cy="1.664" cx="1.166"/><circle r=".45" cy=".093" cx="1.151"/><circle r=".45" cy="10.093" cx="1.151"/><circle r=".45" cy="4.451" cx="1.302"/><circle r=".45" cy="3.763" cx="3.047"/></pattern></defs><g fill-rule="evenodd"><path d="M33.104 62.611c.225.622-1.266 1.587-1.905 2.382-1.48-.266-3.42-.073-5.239 0-1.648-.525-2.202.482-2.994 1.156l2.246.613c-2.337.59-3.856 1.36-4.56 2.313l4.764-.34c-1.725 1.208-2.24 2.072-2.722 2.925 1.794-.236 3.487-1.178 5.443-.272l-7.96 7.417c-2.457 1.716-3.847 3.219-5.444 4.763-.782.499-1.189 1.75-1.428 3.334 1.042 1.547 1.342 3.177 3.878 4.558 3.578.454 7.074 2.53 10.818-.34 2.515-.318 3.378-1.05 7.825-.884 4.193.67 8.575.213 13.132-1.293 1.943-1.052 4.002-3.03 5.783-2.79l7.757.204c4.101-1.32 7.093-4.305 10.138-7.212 1.752-.341 1.041 1.252 7.416-2.722.505.095 1.186-.337 1.361.749.2.874-2.037 2.969-3.13 4.49-.134 2.961-.236 5.938-1.429 8.37l-5.375 4.694c-.872 1.535-1.767 3.052-1.225 5.648 1.91-.996 2.308-1.523 3.876-1.776 2.016-.325 4.156-2.075 4.902-1.763-.218 2.6-.593 5.355-.477 7.621l1.293 4.014c1.584-1.824 3.347-3.113 4.423-6.464.33-1.153.11-2.123 1.428-3.606 1.52-.104 3.04 1.691 4.56 2.722.656 1.678 2.679 3.357 4.354 5.035.39-1.362.892-2.634.408-4.695l-.476-2.109 2.517.408 2.382 1.293c-.812-2.245-1.66-4.49-3.538-6.736l1.769-.408 3.13 1.156c.1-1.277-1.515-2.769-2.79-4.218l-4.49-2.041-2.11-2.11c1.965-2.64 3.54-1.38 5.987-8.845.405-4.472 1.105-9.02-1.292-12.791l-5.307-4.56 4.422-5.17c.99-1.272.888-3.418 1.02-5.375.207.49.735 1.22 2.382 2.79l.817-3.947c.85 1.066 1.62 2.292 2.993 2.313.701-.509.585-1.97.205-3.742l-.68-1.633c.818.205 1.954.508 5.102 1.429-.907-1.451-.894-2.379-2.721-4.014-1.838-.57-3.687-1.511-5.172-1.021l.817-5.375c-.132-1.423-1.173-2.542-2.381-3.606-1.866-.424-3.923-.417-5.103-2.382 1.276-2.1.037-4.955-.34-7.552-.376-1.655-.515-5.879-2.994-8.982l-2.518-.272c.165-1.15.124-2.343-.612-3.674-.715-.972-1.629.045-2.518.817-.55-1.535.277-2.702-2.381-3.266l-2.858 2.04c-.154-1.454-.356-2.876-2.11-3.265-.931-.051-1.388 1.803-2.313 1.905-.7-1.25-1.15-2.823-3.061-2.517L69.71 8.383 65.9 6.07l-1.361 2.45c-1.38-1.812-2.986-3.559-4.899-3.947.024 1.36.094 2.721-.408 4.082-2.819-1.413-2.994-3.333-4.49-3.062.071 1.936-.077 3.023-.545 3.879-1.322-1.715-2.682-3.121-3.878-3.402.707 2.019.193 2.99-.34 3.946-1.265-1.512-2.71-1.767-4.151-2.041.266 1.396.587 2.782-.204 4.354-.995-1.761-2.562-2.188-4.083-2.721l-1.7-.068c1.663 1.723 2.706 3.447 2.38 5.17l-2.789-2.653c-2.377-.587-3.01-.303-4.423-.408l2.586 3.946-4.695-1.7-1.769-.137 1.905 3.742c-3.583-1.3-4.27-1.285-6.055-1.769l1.633 4.15-6.872-2.108 1.7 4.286c-4.576-1.612-4.362-1.855-5.375-2.45l.545 3.879c-1.724-1.319-3.448-2.218-5.171-2.45l-1.225 2.79-4.014-1.973-.953 2.586-2.873-.176c0 1.636.39 3 2.35 4.636l8.58 2.004 6.736 2.117 10.97-.962 8.467-6.736 7.12-1.54 7.121-1.732 9.622-.385c1.589.51 3.36.29 4.62 2.117l-1.156 2.31-2.309 1.347-4.811-1.54c-1.97.256-3.453.999-4.516 2.162-1.058 1.268-1.872 2.536-2.027 3.804-3.42 2.042-4.858 3.885-6.532 5.752-2.708 3.535-4.303 7.07-5.015 10.606l-4.619.193-3.656 3.656-6.544 1.54c-.818-1.325-2.743-2.512-5.003-3.657-1.94-1.069-3.568-.735-5.15-.192l-3.318 2.694c-1.582.13-2.603 1.52-3.464 3.272-.507 1.003-2.87 1.14-.962 3.271 1.703.727 1.964 2.008 5.773 1.925 1.631.914 3.52 1.712 7.12 1.732l3.08.384c-.066-1.23 1.626-1.877 3.134-2.583 1.133.56 2.954-.025 3.117 2.151z" fill="#fff" stroke="red" stroke-width=".386"/><g fill="url(#b)" transform="translate(2.504 -942.898)"><path d="M52.375 1017.612c2.472-.68 3.75-2.912 4.563-5.75 4.312 4.085 7.812 8.538 12.937 5.75.55-.74 1.33-1.345 1.579-2.21.396-1.38.112-2.937.484-3.102-.127.748.89 3.28 1.315 3.71 2.34-.742 6.54-.01 8.035.986-.81 1.072-.98 2.05-1.85 2.554-.88-.347-2.973-.23-4.806 1.082-1.96 1.403-3.288 1.45-4.257 1.23-3.217 3.49-6.555 5.647-9.938 7.313l-8.062-.313-6.063 2.875-10.187 1.875-4.875-.625c-.218-.73 1.261-1.745 1.937-2.625l1.938-.375 2.25-1.875 3.625-.5c1.958-.35 4.23-1.13 6.25-3.062l1-2.063c.806-.29 1.717-.264 2.375-1 .664-.888 1.253-2.153 1.75-3.875zm-34.75 11c.915-1.844 1.953-3.698 5.125-6.187l7.813-5.625c1.461-.972 1.604-1.63 4.25-2.75.968-1.133.854-4.896 1.124-7.25 3.009.099 4.288-.745 5.5-1.625 2.922 1 5.64 1.457 8.063 1.125l.625 2.937-1.438 3.625-3.687 4.875c-4.065 1.352-4.74 3.301-6.125 5.125l-2.5 1.375c-2.795-.899-4.181.492-5.688 1.688l-2.25.125c-1.363.178-2.677.405-3.875.75-.405 1.319-1.07 2.482-3.125 2.812-1.659.54-2.815-.05-3.812-1zm13.665-23.538l-2.564 2.564-5.833.088c-2.173.53-2.002 1.06-2.917 1.59 1.671-.065 2.64.102 3.624.266-2.021.514-4.121.553-5.922 2.386l5.48-.442c-1.107.975-2.825 1.49-3.094 3.094 3.09-.799 4.417-.54 6.453-.707 2.061-.841 3.741-2.254 4.86-4.508zm45.085-2.587c2.841-1.122 4.445-.83 8.75-3.625 1.874-1.244 3.357-2.863 4.529-4.927l.133-5.03c.599-1.225 1.147-2.45 1.051-3.674l2.287 4.506c.125 2.084-.03 4.728.375 6.25-.544 1.889-1.245 3.558-2.375 4.625-.846 1.288-1.975 2.011-3.044 2.853l-6.206-1.353c-2.71-.362-3.73.215-5.5.375zm-20.867-38.248c4.596-2.269 11.835-.402 14.407-6.187 1.389-1.11 1.516.553 1.768 1.944l-1.414 3.713v1.502c-.91 1.474-1.814 2.964-3.182 2.829.055-.68 1.026-.902-.177-2.21-2.84-1.625-4.782-1.631-6.452-1.149z"/><path d="M43.222 955.312c.58-.51 1.153-1.06 1.503-2.608 1.071-.424 1.885.442 2.828.663.635-.396 1.424-.638 1.503-1.59 1.457.035 1.831.938 2.74 1.413.638-.841 1.206-.88 1.325-2.519 1.238-.301 2.475 1.03 3.713 1.547.677-.693 1.134-.813 1.812-2.342 1.64.184 2.327 1.561 3.491 2.342.66-.21 1.264-.49 1.458-1.281.72-.766 2.387.677 3.58 1.016 1.001-.072 1.997-.148 2.077-.795.124-.715 1.62.766 2.431 1.149 1.866-1.847 2.488.662 3.712 1.06 2.763.796 1.84 1.445-.47 2.538-1.831.332-1.273 3.628-4.53 1.806-1.14.947-1.558-1.236-2.601-2.4l-1.15 1.327c-1.297-.955-2.7-2.963-3.888-2.829l-.796 2.033c-1.244-1.018-2.502-2.008-3.977-2.563-.53-.025-1.06-.181-1.591.353l.177 2.299-3.182-1.68c-1.09-.374-1.901-.332-2.52 0 .421.678.984 1.355 1.194 2.033-1.812-.606-3.562-1.518-5.48-1.59l-1.061 2.916c-.766-.46-1.532-.918-2.298-2.298zm43.928 12.153c1.446 1.233.496 4.196-.087 6.894l3.182-1.016c.911-1.728-.204-4.378-.442-6.63-.319-2.668-.831-4.755-1.503-6.363l-1.06 3.094c.19.863.133 3.165-.09 4.021zm-46.403 23.291c.952 1.01 3.012-.27 5.038 1.237 1.107-1.41 2.444-2.36 4.95-.972.241-.774-.116-1.748 2.121-1.856l-.177-3.448 2.033-2.298s-3.656 3.519-5.833 4.773c-2.537 1.462-8.132 2.564-8.132 2.564zm12.64-18.032c-.443.768-.384.934-.604 2.064 2.588-.784 5.326-.985 6.526-.65.126-.925 1.894-.866 3.093-1.149l.884-2.474s-2.65 1.688-3.889 2.033c-2.082.579-6.01.176-6.01.176z"/></g><path style="line-height:normal;text-indent:0;text-align:start;text-decoration-line:none;text-decoration-style:solid;text-decoration-color:#000;text-transform:none;block-progression:tb;white-space:normal;isolation:auto;mix-blend-mode:normal;solid-color:#000;solid-opacity:1" d="M89.155 40.45c.204 1.058.316 2.42-1.037 2.799-.013 1.024.301 2.207-.262 2.772-.405.407-1.556.426-2.114.532-.197.762-.14 1.562-.31 2.326-.144.644-1.183.597-1.689.552-.323.833-.632 2.016-1.083 2.221-.63.288-1.858.16-2.51.41-.051.66-.079 1.585-.83 1.802-.842.244-1.761.01-2.598.313 2.239.875 2.71.723 3.704.365.607-.22.48-1.154.773-1.562.96-.106 1.958-.3 2.679-1.054.482-.505.399-.957.572-1.562.485-.005 1.534-.19 1.791-.546.273-.379.692-1.556.105-2.752 1.886.217 2.385.25 2.75-1.238.154-.625-.076-1.29-.439-2.16.573-.242 1.193-.954 1.194-1.265.001-.595-.268-1.216-.696-1.953zM60.216 56.178c1.427 1.327 3.417 2.912 3.503 4.99.042 1.012-1.017 1.77-1.611 2.479-.074.979-.269 2.319-.798 3.138-.78 1.206-2.006 1.733-2.34 1.997.16 1.244.547 1.906.323 3.01-.214 1.053-1.032 2.557-1.207 3.424-.317 1.571-1.606 3.717-3.158 3.533-.034 1.146-.522 1.94-1.017 2.78-.7 1.192-1.677 1.98-2.519 2.625 2.102-.32 3.716-2.233 4.19-4.634.983.352 1.756-.637 2.285-1.597.487-.882.888-1.978 1.215-2.955.602-1.805 1.55-3.746.814-5.707.805-.229 1.883-.831 2.457-1.939.523-1.008.57-2.493.738-3.374.986-.565 1.654-1.182 1.742-2.183.158-1.823-1.655-4.058-4.617-5.587zm-10.888 1.626c-1.07.53-2.204.983-3.394.857a13.966 13.966 0 0 1-1.378-.222c1.139 1.138 3.288 1.317 4.218.952.393-.155.754-.407 1.714-.639 1.926-.463 3.766.283 4.719-.807-.848-.117-1.627.03-2.614-.092-.986-.122-2.252-.55-3.265-.049zm.529-5.491c-.778-.058-1.494.341-2.143.708a9.317 9.317 0 0 0-2.26 1.82c-1.208 1.316-1.933 1.201-2.813 2.23 1.122-.246 2.543-.721 3.5-1.334.638.825 1.61 1.41 2.676 1.343 1.788-.11 3.334-1.427 4.223-1.854.844-.406 1.703-.503 1.944-.387 1.17.565 1.793 1.604 3.134 1.436-1.162-.754-1.75-1.289-2.828-2.199-.294-.195-1.016-.09-1.314.021-.343.127-.784-.149-.887-.289-.738-1.006-2.016-1.403-3.232-1.495zm-.225.844c1.05-.178 2.5.681 3.193 1.304-1.053.532-2.68 1.533-3.859 1.72-.792.125-1.542-.583-1.981-1.223.886-.758 1.656-1.632 2.647-1.8zm-34.935 2.584c-.88.611-.339.585-.95 1.47-.305.454-.735.67-.768 1.22.041.73.554 1.112 1.018 1.333-.419-.61.699-2.95 1.415-3.187.232-.294.151-1.028.501-1.374.403-.4 1.244-.408 1.596-.654-1.415-.788-1.787-.612-2.812 1.192zm27.739 13.563c-1.58.237-2.77 1.47-3.64 2.714-1.245 1.782-2.56 3.593-4.424 4.773-.654.414-1.34.773-2.02 1.139 1.441.686 4.102-1.22 4.988-2.141 1.025-1.065 1.804-2.321 2.698-3.485.714-.93 1.191-1.494 2.387-1.867 1.359-.424 1.974-.51 3.195-.642-1.052-.224-2.088-.655-3.184-.491zm-.445 4.03c-.84.612-1.315 1.439-1.976 2.229-.673.805-2.073 2.2-2.337 3.226 1.11-1.36 1.83-1.75 3.048-2.84.494-.442 1.236-1.667 1.823-2.013.754-.445 1.665-.356 2.507-.546-1.57-.22-2.248-.65-3.065-.056z" color="#000" font-weight="400" font-family="sans-serif" overflow="visible"/><g color="#000" font-weight="400" font-family="sans-serif"><path d="M44.72 52.939c-.528.601-1.597-.122-2.318.254-1.581.825-4.094 1.33-4.17 1.794-.047.283 1.02.404 1.446.386 1.366-.056 2.013-1.376 3.447-1.302.521.027 1.599.624 1.951.231.993-1.106 1.863-2.572 3.303-3.016 1.307-.403 2.634.547 3.884 1.006.556.204 1.113.918 1.673.719 1.15-.41 2.4-.619 3.577-.123 1.098.463 2.077 1.12 3.19 1.553.926.36 1.887.603 2.85.834-1.657-1.101-3.102-2.066-4.372-2.903-.617-.407-1.355-.581-2.061-.762-1.057-.27-2.177-.087-3.202.252-1.523-.825-3.138-1.662-4.894-1.796-.318-.01-.639.018-1.5.299-.86.28-1.81 1.526-2.803 2.574zm28.77-42.86c-1.05-.233-1.957.214-1.932 1.052.732-.46 1.207-.58 1.694-.45.435.118.804 1.061.844 1.575.586-.213 1.532-.246 2.21-.048.51.148 1.276.292.668 1.235 1.187.63 1.484.362 2.65 1.508-.125.425-.295 1.025-.164 1.245.25.42.722.16 1.248.442.29.495-.297 1.201-.706 1.397.206.214 1.168 1.18 1.082 1.322-.182.3-.925.355-1.014 1.082-.065.535.712 1.607.582 1.947-.293.764-1.633.734-2.396 1.303-.752.56-.386 2.066-.814 2.496-.164.165-1.213-.004-1.693.189-1.355.544-1.203.929-1.737 1.81-.29.162-1.963.543-2.122.682-.54.47-.493.9-.978 1.918-.54.16-1.717.235-2.185.568-.897.64-.92 1.684-1.004 2.28-.689.11-2.053.624-2.398.988-.68.72-.834 1.785-1.032 2.585-.704.253-2.182.574-2.69 1.161-.416.482-.388 1.824-.284 2.524-.873.615-1.34.937-1.917 2.238-.297.67-.005 2.326.71 3.418-.045-1.648-.547-2.291.219-3.28.57-.737 1.323-1.402 2.074-1.818-.317-.795-.481-2.065.024-2.511.506-.447 2.16-.751 2.756-.974.381-1.09.245-1.529.813-2.522.583-1.02 1.67-.818 2.496-.955.102-.773.129-1.857.73-2.438.38-.367 1.876-.58 2.437-.603.15-.77.254-1.51.795-1.864.255-.168 1.73-.623 2.23-.58.75-.669.192-1.124 1.29-1.648.778-.372 2.42.265 2.827-.177-.155-.841-.227-1.983.356-2.608.678-.727 1.348-.912 2.504-1.54.208-.565-.7-1.533-.496-2.125.09-.264.895-.89 1.078-1.369.1-.262-.48-1.074-1.219-1.27.397-.58.805-1.333.732-1.774-.092-.552-.97-.58-1.377-.877.178-.706.05-1.386-.4-1.728-.622-.472-1.743-.31-1.779-.827.158-.564-.152-1.05-.684-1.382-.761-.475-1.977-.637-2.935-.268.015-.854-.461-1.356-1.092-1.33z" style="line-height:normal;text-indent:0;text-align:start;text-decoration-line:none;text-decoration-style:solid;text-decoration-color:#000;text-transform:none;block-progression:tb;white-space:normal;isolation:auto;mix-blend-mode:normal;solid-color:#000;solid-opacity:1" overflow="visible"/><path d="M84.58 16.144c.368.609.003 1.942.256 2.277.28.248.652.868.725 1.155.182.715-.435 1.129-1.19 1.526.666.783 1.504 1.241 1.433 2.55-.102 1.896-2.364 2.088-3.031 2.959-.922 1.2-.183 1.962.215 2.908-.79-.077-1.894-.444-2.387.5-.416.796-.355 1.798.094 2.532-.983.164-1.556-.704-2.352.584-.614.994-.313 1.609.01 2.25-.947.06-1.47-1.07-2.723.293-.993 1.08-.14 2.132.116 2.817-.629-.317-1.404-1.07-2.587.073-.846.817-.414 1.327-.096 2.242-.837-.268-1.53-.538-2.679.637-1.035 1.06-.896 2.267-.594 3.305-.61-.113-2.287-.843-3.104-.255-.979.705-1.158 2.35-.658 3.296.373-1.176.637-1.659 1.173-2.347.655-.841 2.268.006 3.213.099.112-1.199-.23-3.078 1.205-3.327.969-.296 1.277-.685 2.08-.753.108-.564-.329-1.531.025-2.005.417-.558 1.667-.564 2.345-.345.693.018.073-1.702.464-2.266.628-.906 1.174-.357 2.581-1.027.079-.608-.165-1.336.142-1.873.26-.457 1.693-.708 2.374-.702-.567-.639-.446-2.142-.17-2.545.412-.6 1.703-.354 2.385-.731-.513-1.061-.628-1.632-.135-2.504.366-.65 1.272-.538 1.965-1.28.703-.754 1.413-1.114 1.281-2.3-.183-1.655-.596-2.382-1.268-2.698.472-.475 1.161-1.229 1.173-1.988.007-.46-.237-.924-.931-1.328-1.402-4.705-3.258-3.383-3.76-3.308 1.336.279 1.89.715 2.41 1.579zM54.495 35.332c-.704.644-.494 1.818-.51 2.778-.867.31-1.87.417-2.304 1.313-.217.448.002 1.607.217 2.648-.874.24-2.127.166-2.417 1.267-.258.984.219 2.07.899 3.353-.252-1.402-.534-2.246-.323-3.063.273-1.057 1.693-1.02 2.307-1.283-.112-.871-.3-2.012.213-2.787.416-.628 1.247-.773 1.867-1.155-.117-.97.075-1.783.63-2.4.49-.545 1.616-.658 2.22-.851.113-.995.387-1.88 1.24-2.385.478-.283 1.252-.394 1.528-.2-.903-.836-1.73-.392-2.282-.093-.876.473-.963 1.444-.88 2.206-.784.04-1.713.018-2.405.652zm8.007 11.984c-.559.018-.967.607-1.512.606-.838-.001-1.655-.568-2.483-.268-.56.204-.922.808-1.5.942-.806.187-1.711-.287-2.486.126-.568.302-1.015.789-1.345 1.333 1.178-.657 1.973-.914 2.582-.775.606.139 1.095.77 1.654.488.689-.348.85-1.447 1.683-1.36.584.061 1.441.83 2.02.762.359-.041.889-.845 1.239-.977 1.436-.541 1.266-.441 2.404-.28a4.188 4.188 0 0 0-2.256-.597zm30.223-2.613c-1.645 2.227-.193 4.282-1.074 6.304-.881 2.022-2.54 3.223-3.387 3.864l-2.39 1.807c3.023-.708 5.088-2.185 6.294-4.255.684-1.175.19-3.538.376-5.656z" style="line-height:normal;text-indent:0;text-align:start;text-decoration-line:none;text-decoration-style:solid;text-decoration-color:#000;text-transform:none;block-progression:tb;white-space:normal;isolation:auto;mix-blend-mode:normal;solid-color:#000;solid-opacity:1" overflow="visible"/></g><path style="line-height:normal;text-indent:0;text-align:start;text-decoration-line:none;text-decoration-style:solid;text-decoration-color:#000;text-transform:none;block-progression:tb;white-space:normal;isolation:auto;mix-blend-mode:normal;solid-color:#000;solid-opacity:1;marker:none" d="M19.874 52.674c-.236.873.519 1.103 1.124 1.743.933.989 1.422 1.178 2.904 1.318.995.094 1.061-.544 1.149-1.366.1-.947-.432-1.759-1.18-2.305-.99-.723-1.844-.451-2.963-.302-.572.077-.872.31-1.034.912zm1.315.202c.18-.498.73-.168 1.215-.164.785.008 1.132.364 1.466 1.101.187.412-.028.55-.432.752-.749.376-1.05-.069-1.664-.602-.346-.3-.755-.616-.585-1.087z" color="#000" font-weight="400" font-family="sans-serif" overflow="visible"/><path style="marker:none" d="M51.03 54.576a1.395 1.395 0 1 1-.428-1.005c-1.176.375-1.106.726-1.209 1.125.546-.168 1.09-.44 1.636-.12z" color="#000" overflow="visible"/><path style="line-height:normal;text-indent:0;text-align:start;text-decoration-line:none;text-decoration-style:solid;text-decoration-color:#000;text-transform:none;block-progression:tb;white-space:normal;isolation:auto;mix-blend-mode:normal;solid-color:#000;solid-opacity:1" d="M59.132 3.547c-.2 1.482.195 3.75-.398 4.26-.91-.564-2.25-3.506-4.448-3.3-.213 1.634.154 2.952-.196 4.005-1.453-1.917-4.162-3.875-4.511-3.5.587 1.157.16 3.245.276 4.179-1.237-.863-4.782-2.85-5.456-2.541.77 1.214.59 3.195.99 4.373-1.046-1.563-5.67-2.717-6.448-1.773.423.919 2.784 3.181 2.804 4.25-1.663-2.812-6.48-3.085-7.558-2.181.738.942 1.002 1.811 2.194 3.398-.512-1.074-5.765-2.31-7.049-1.523.408 1.193 2.502 2.418 2.65 3.205-1.674-.336-6.051-2.552-6.96-1.195 1.141 1.313 2.017 2.19 2.51 3.43-1.117.23-4.822-2.076-7.32-1.334.375.538 2.381 3.836 2.37 4.046-1.622-.333-4.82-3.202-5.94-2.451.915.877 1.064 2.516 1.393 3.449-.735-.821-3.66-2.077-5.062-1.914.067.994-.568.721-1.038 2.313-.568-.152-2.79-2.177-4.629-2.13.055.457-.582 2.831-.848 2.917-1.007.326-1.226-.196-2.864-.5-.425 3.351 1.924 6.14 3.221 6.747 2.608 1.22 6.794 1.07 9.692 2.558 4.755 2.442 10.63 1.151 15.932.423 5.224-.717 7.887-7.584 13.593-7.703 5.235-.146 9.454-3.096 14.692-2.248 2.596-.797 8.244.152 8.533 1.489.13.596-1.1 1.766-3.23 2.506-1.955-1.261-4.888-1.675-6.897-.88-2.599 1.028-4.123 3.754-4.876 5.922-3.381 1.557-5.757 4.224-7.616 7.276-1.407 2.31-2.162 3.476-3.015 5.981-.175.514-.688 2.152-.987 2.324-.729.422-2.214.026-3.608.238-.935.142-1.83.557-2.428 1.671-1.862 3.466-8.408 4.08-10.789.772-.294-.408-2.983-1.716-5.64-1.563-1.917.11-3.595 1.187-4.37 2.554-3.468 1.261-3.568 2.477-4.633 4.008-2.962 2.03-1.301 4.376.112 5.292 1.444.937 3.82 1.534 4.844 2.192 2.15 2.147 6.17.374 9.466 1.166 1.37.329 3.37-1.255 4.648-1.72 1.042-.38 1.881-.12 1.903.236-.673.743-.746 1.532-1.237 2.02-.824-.174-1.645-.628-2.354-.054-.164.215-.564.416-.793.417-.736-.016-1.907-.27-2.639-.155-1.255.319-2.66.774-3.328 2.124.406.105 1.983.01 2.37.175-1.504.362-4.18 1.09-4.902 2.861 1.483-.082 4.215-.214 4.504-.223-.59.492-2.253 2.263-2.027 3.068 1.064-.298 2.996-.562 4.563-.754-2.46 1.57-3.933 3.923-6.132 5.843-3.077 2.685-8.3 4.883-7.227 9.714.744 1.462 1.702 3.14 2.96 4.117 2.117 1.644 4.905 2.089 7.65 1.94 4.51-.2 8.362-3.188 12.955-2.104 4.44 1.153 8.741-.758 13.03-1.537 3.576-2.921 6.397-2.783 11.165-2.365 5.41.475 8.637-5.014 12.464-7.68 2.05 1.051 6.37-2.73 6.78-2.683 2.462.282-.945 2.014-1.885 3.221-1.167 2.637-.488 5.64-1.297 7.931-.39 1.106-1.46 1.863-2.62 2.684-2.595 1.96-6.522 7.706-3.895 10.459 1.133-1.627 3.094-1.827 4.937-2.363 1.276-.37 2.495-1.202 3.342-1.545-.532 2.484-.417 2.82-.644 5.354.234 2.891 1.325 4.82 1.784 6.889.746-.98 3.012-3.182 4.248-5.17 1.216-1.953 1.452-4.46 1.937-5.557 2.063 1.083 2.59 1.146 3.93 2.906 1.091 1.056 3.704 3.825 4.914 4.993 1.581-2.594.592-6.136.576-6.98 2.168.18 2.645 1.346 4.67 1.902.072-2.472-1.653-5.86-3.284-6.987.481-.282.724-.363 1.55-.246.863.121 2.607 1.117 3.143 1.127-.384-3.261-3.459-6.174-6.498-6.666-3.574-1.73-.553-3.455.87-5.66 2.985-4.17 4.055-9.563 2.453-14.489.348-4.218-3.566-6.816-5.885-8.494 3.245-1.584 4.573-5.287 4.624-8.745.618 1.047 1.681 2.007 2.022 1.835.284-1.038.312-1.312.655-3.555.778 1.147 2.911 2.163 3.434 1.922.716-.331.24-3.595-.312-5.14 1.983.068 3.53.869 5.022 1.217.182-1.328-1.257-3.45-1.84-4.168-1.046-1.289-4.148-2.163-5.925-2.12.244-1.184.736-2.982.604-4.35-.383-3.949-3.779-5.34-7.036-6.326.677-2.41-.18-4.784-.71-7.282-.617-2.899-1.009-7.53-3.122-9.69-.533-.545-1.5-.279-2.385-.486.33-2.282-.107-2.877-.95-3.587-.74-.623-1.553-.442-2.71.525.281-1.576-.92-2.86-2.045-3.251-.607-.211-2.102.163-2.59 1.603-.085-1.308-1.271-2.519-2.34-2.766-1.067-.247-2.402.801-2.603 1.988-.338-1.654-2.079-3.085-3.34-2.924-1.113.142-1.02 1.645-1.328 2.66-.657-1.342-2.58-2.543-3.493-2.48-1.08.076-1.133 1.614-1.501 2.382-.885-1.15-3.26-4.153-5.288-4.018zm1.407 2.093c1.56.61 3.21 2.864 4.042 3.912.92-.882.69-2.174 1.561-2.203 1.668-.054 2.63 1.668 3.776 1.59.592-.656.718-2.166 1.574-2.217 1.141-.068 1.832 2.457 2.462 2.532.934-.61 1.54-1.952 2.311-1.932.539.013 1.404 1.734 1.474 3.002 1.466.768 2.736-1.824 3.493-1.525 1.348.534 1.868 1.06 1.976 3.03.647-.334 1.588-1.553 2.285-1.042.576.423.754 2.35.372 4.098 1.317-.5 2.287-.337 2.898.3.722.75.947 2.158.66 3.914-.459.844-.592 2.198-.253 3.204.472 1.402-.152 3.078-1.414 3.953-1.519 1.053-.168 3.166-1.442 4.355-.793.739-.376 1.954-.719 3.336-.191.772-.816.987-1.135 1.8-.218.555-.352 1.525-.54 2.305-.788-.02-1.991.535-2.205 1.098-.243.638-.216 1.363.17 1.958-.748-.063-1.767.095-2.09.553-.53.752-.37 1.875-.404 2.532-.86-.124-1.844.254-2.35.768-.727.739-.82 1.809-1.156 2.498-.644-.26-1.578-.402-2.173.013-.647.45-.937 1.498-1.157 2.166-.949-.518-1.059-.888-2.111-.878-.852.008-1.211.471-1.946 1.508-.848-.223-1.831-1.05-2.947-.778-1.138.276-2.405 1.661-2.809 2.585 1.107-.909 1.91-1.49 3.17-1.688 1.154-.18 1.793.552 2.95 1.225.505-1.001.98-1.439 1.886-1.814.92-.382 1.393.559 2.07 1.186.318-.608.916-2.157 1.506-2.68.619-.55 1.337-.048 2.25.46.054-1.04.855-2.149 1.367-2.987.707-.53 1.988-.773 2.838-.502-.44-1.142-.305-2.326-.07-2.798.381-.765.886-.826 2.25-.472-.451-1.154-.772-1.418-.413-2.213.516-1.141 1.843-.576 2.696-.6-.325-.708-.691-1.406.054-2.198.477-.508.326-1.27.744-1.842.802-1.098.173-2.162.474-3.332.227-.88 1.736-1.321 1.684-2.217-.071-1.234.048-2.38 1.093-3.137 1.25-.905 1.426-3.018.997-4.448-.15-.502.019-2.064.38-2.796 1.421 2.396.16 6.244 1.342 8.478.664 1.254.047 1.825-.395 2.792-1.302-.105-2.807.694-3.643 1.47-1.222 1.138-.33 2.912-.284 4.366.778-1.145.187-1.948.659-2.792.205-.366.516-.96.918-1.086.831-.26.903-.419 1.754-.266.211.038.986-.302 1.506-.36 1.752 2.653 5.665.494 5.887 4.302 2.2 1.85-.436 6.377.039 6.97 1.517-.447 3.076-.322 4.393.153a1.412 1.412 0 0 0-.443.566c-.185.444-.318.92-.35 1.388-.576-.385-2.515-.951-2.552-.725.299.52.802.571 1.085.803.327.268.678.55.705.637-.916.056-1.733.771-1.928 1.67-.008.033-.959-.58-1.136-.99-.348-.183-.444-.1-.538.132.167.436 1.12 1.383 1.049 1.648-.212-.211-.433-.394-.69-.434-.791-.157-1.398.398-1.828 1.067a1.193 1.193 0 0 1-.025-.474c.296-1.393-.518-3.544-1.765-4.899.755.789 2.302.422 2.56-.166l-1.206-.012c-.647-.007-1.439-.77-1.907-1.13-.535-.806-.65-1.23-1.38-1.866-.448-.39-1.836-1.185-3.102-1.903 1.256 1.35 3.03 3.08 4.016 4.643.702 1.113 1.018 2.417 1.382 3.672.197.676.57 1.343.526 2.046-.044.684-.441 1.61-.336 2.528.484 4.238-3.303 5.03-4.8 8.19-2.788-.699-4.72-1.264-7.645-1.163-1.152.04-3.162.423-4.227.864-1.013-.492-1.895-.725-2.875-.866-.98-1.388-2.032-2.742-3.294-3.887-.709-.643-1.564-1.15-2.51-1.318-1.554-.275-2.539-.584-4.819.785 1.794-.256 3.526-.304 5.005.478.901.476 1.703 1.046 2.39 1.754.75.774 1.404 1.636 2.03 2.511a1.962 1.962 0 0 0-.599.517c-.73.759-.517 1.303-.176 2.86.2-1.53.985-2.26 1.597-2.507 1.195-.024 2.788.395 3.38 1.237 1.844-.875 4.019-1.305 5.977-.852 2.021.467 4.094.824 5.986 1.675 1.115.502 2.853 1.186 3.6 2.207 2.59 3.542 3.578 8.668 2.574 12.943-.89 3.79-3.254 6.993-6.283 9.351-1.617-.436-3.384-1.66-5.035-1.405-1.809.278-2.851-.122-4.984 2.368 1.659-1.031 3.392-1.593 5.182-1.41 1.504.155 3.1.824 4.512 1.319 2.143.751 2.894 2.77 5.184 3.192-.271.53-.544 2.451.436 3.363-.441-.266-2.583-.553-3.06-.748-.025-1.93-1.237-2.637-2.473-2.052.26.228.975.533 1.284.674.374.218.455 1.427.615 1.803.975.498 2.47.453 3.26 1.065.25.416.697 1.261.992 1.767-.749.109-1.091.196-1.33.953-.186.586-.535 1.32-.605 1.571-.374-.194-.792-1.21-1.129-1.352-.553-.893-1.262-1.707-2.179-2.237-.267-.154-.64-.05-.89-.247-.836-.654-1.114-1.607-2.216-2.636.45.934.719 1.961 1.337 2.809.181.248.344.534.597.71.55.381.928.435 1.385.942.365.405 1.194 1.015 1.452 1.416-1 .357-2.122 1.265-2.171 2.34-2.006-1.379-3.9-3.547-5.798-2.102-.05 1.053-.4 1.976-.896 2.834-.34-.865-.859-1.68-1.817-1.892-.809-.179-1.861.16-2.495.504-.513-.565-.093-2.966.426-4.091-1.562.123-2.369.961-4.338 1.765-.013-.86-1.22-2.827-1.81-3.42.498-.434 1.33-1.074 1.274-1.68 3.455-.576 1.961-3.701 4.008-5.753-1.766-3.572 1.514-6.623 2.524-8.537 1.01-1.913 2.392-3.057 3.902-4.293.453-.37 2.644-1.166 3.128-1.329-2.092-.983-4.68 1.35-5.346 2.108a25.051 25.051 0 0 0-1.437 1.82c-.733-.606-1.426-.708-2.114-.534-.267-1.327-.336-2.664-.493-4.008-.103-.884-1.336-1.68-1.006-2.56.162-.432.508-2.212.304-2.416-.119-.074-.752 1.4-.837 1.51-.817 1.054.354 2.404.771 3.528.22.591-.104 1.173-.014 1.811.055.394.21 1.527-.054 1.514-.952-.41-1.5-.482-1.93-1.37-.35-.72-.267-2.449-.683-3.88-.04.91-.618 3.03-.317 4.047.578 1.21 1.653 1.903 2.645 2.58-1.334.82-2.758 1.875-4.522 1.462.269-.997.424-2.06.05-3.04-.28-.738.275-1.212.613-1.774.59-.98.525-2.14.721-3.247.137-.77.98-1.377.995-2.199.036-1.934-.735-2.102-1.867-3.631-.002 1.28 1.068 2.375.734 3.676-.17.664-.803 1.123-.997 1.75-.284.915.219 1.971-.33 2.851-.331.532-.906.914-1.118 1.501-.366 1.013.525 1.468.385 2.558-.061.47-1.166 1.672-1.036 2.775-3.064 1.829-5 5.025-8.945 5.945-3.918.914-8.312-2.104-11.501 1.401-4.098 2.083-9.063 3.4-13.723 2.873-.918-.388-1.81-.452-2.694-.383.356-.447.706-.897 1.12-1.199.447-.324 1.767-.066 2.386-.725.68-.723 1.547-1.32 2.48-1.629 1.087-.359 2.462-.108 3.557-.423 1.167-.336 3.362-1.127 4.7-2.173 1.694-1.324 2.146-3.2 2.146-3.2s1.61-.059 2.233-.787c.888-1.517 2.163-3.729 1.348-4.92-.16 1.082-.905 2.97-1.801 3.963-.776.862-1.653.872-2.505 1.31-.355.754-.475 1.577-1.012 1.944-1.663 1.488-3.307 2.224-5.41 2.842-1.645.485-3.808.393-5.31 1.193-.979.521-1.698 1.506-2.848 1.763-1.357.303-1.802 2.108-3.212 2.39-1.663.364-3.354.766-5.201.094-3.095 3.288-7.443 2.025-10.678.242-1.73-.953-2.608-4.013-1.597-5.524.286.693.897 1.769 1.376 2.105.574 1.066 1.333-.348 2.228.243 1.513.393 2.952 1.18 4.365 1.824.236-1.303 1.697-1.48 2.747-.753.91-1.254.937-1.887 1.78-3.268 1.144-.903 3.46.843 4.444-.7.981-.116 2.314.21 2.877-1.022 1.082-1.597 2.747-.294 4.176-.836 1.62-.24 2.95-1.213 3.982-2.394 1.414-1.67 2.59-3.707 4.944-4.004 1.098-1.604 1.618-3.679 3.46-4.65 1.007-.296 1.318-2.42 1.356-3.344.742-1.258 1.47-.848 2.592-1.43.623-.677 2.57-.906 3.5-.894-1.059-.663-2.777-.533-4.345-.213-.409.275-1.084.258-1.63.636.093-.529.032-.741-.275-1.261.577-.085 1.188-.578 1.65-.946.958-.765 1.446-1.936 2.369-2.244.474-.157.999.107 1.73.464.587.286 1.052.769 2.527 1.856-.131-1.122-.814-1.974-1.323-2.368-.609-.472-1.59-.94-2.851-1.112-1.262-.173-1.597 1.26-2.354 1.956-.733.673-1.98.805-2.985.572-2.211.457-2.244-.031-3.88.12-1.213.023-2.734-.765-3.794-1.277-.871.507-1.905 1.225-2.796 1.69-1.06.385-1.453.89-2.445.117-.27-.3-1.596-1.364-2.316-1.592-.522-.08-1.829-.149-2.468-.232-1.968-1.398-5.888-1.743-7.514.695-3.739-.459-6.776.499-9.469-1.75-2.075.067-5.323-1.218-5.604-2.632-.099-.494 1.319-1.073 2.153-1.911.754-2.663 4.007-3.644 5.871-5.135 2.742.025 6.89-.097 7.589 3.38 2.035.791 5.263.14 7.274-.935 3.058.873 3.857-2.979 5.762-3.827.736-.328 1.636-.207 2.896.805.845-.647 1.756-.936 2.709-1.029.939-.09 2.207.134 2.891.676.518-.698 1.081-1.351 2.114-1.554 1.1-.216 2.555.5 3.143.591.054-.576.09-1.396.482-1.728.356-.302 1.337-.336 1.803-.347-.16-.864-.506-2.91-.049-4.008.292-.7 1.46-1.117 1.757-1.703-.052-.812-.365-1.654.053-2.388.356-.626 1.373-.665 1.718-1.114.015-.814-.136-1.76.338-2.45.463-.673 1.47-.837 1.975-1.356.253-.86.38-1.98 1.195-2.486.74-.338 1.56-.409 2.362-.465-.092-.674.056-1.708.942-2.17.716-.902 2.158-1.583 3.72-2.6 1.56-1.016 2.867-2.382 3.62-4.146-.246-.86.231-1.54.538-2.3.22-.625.382-.875.547-1.474.353-1.78-.654-3.408-1.414-4.941-.329.503-.586 1.061-1.01 1.495-.384-1.297-1.3-2.75-2.816-2.737-.491-.022-.985-.03-.693.591.313 1.354-.826-.484-1.324-.787-.732-.652-1.744-1.68-2.796-1.097-.807.317.295 2.356-.79 1.484-1.142-.753-2.288-1.647-3.663-1.909-.562-.115-1.932.164-1.648.927.1.611-.026.994.043 1.403-1.314-.887-2.124-1.42-3.704-1.65-.56-.081-2.507.233-1.886.602.505.415 1.52 2.009.336 1.284-1.604-.695-2.957-1.227-4.742-1.101-.066 1.103-.574 2.36-.744 2.592-.446-.13-1.1-1.286-1.503-1.576.746-.81.525-2.54.06-3.763 1.283-.115 2.543.862 3.438 1.858 1.623-.43 1.458-2.85 1.2-3.653 1.127.325 1.993 2.417 2.986 3.368 1.324-.405.823-3.586 1.376-3.833.847-.008 1.807 1.922 4.1 2.987 1.013-1.098 1.135-2.261 1.062-3.855zM40.7 9.92c1.921.61 3.326 1.56 4.514 2.787.926.97 1.84 2.196 3.256 2.458.524-.987.96-2.135.848-2.925 1.06.107 4.138 1.148 5.118 1.543-.873.54-1.771.584-2.396 1.444-.306.42-.05 1.99-.073 2.554-.05 1.245-1.099 2.225-.65 3.431.143.386.354.744.455 1.144-2.306.707-4.794 1.04-7.206 1.266.418-1.541.586-3.157.23-4.725-.118-.517-.157-1.104-.49-1.516-.744-.925-1.626-1.82-1.437-2.95.189-1.128-.337-3.197-2.169-4.511zm19.326.855c.415.029.922.326 1.129.446 1.199.492 1.687 1.521 2.794 2.167.035 1.3-.596 2.524-1.384 3.523-.268.32-.547.632-.73 1.012-.45.801-.63 1.815-.23 2.673.059.14.128.274.203.404-2.258.174-4.53.499-6.847.042-.685.38-1.411.692-2.158.968-.166-.66-.647-1.208-.695-1.903-.063-.905.782-1.502.665-2.39-.126-.958-.327-1.805-.108-2.052.177-.2 2.551-1.394 2.758-1.83-.172-.7-.203-.79-.72-1.262-.279-.256-.697-.507-.839-.937 1.854-.507 4.535 1.68 5.55 2.135.19-.52.173-.45.274-1.406-.185-.522-.48-1.226-.032-1.514a.597.597 0 0 1 .37-.076zm5.66.886c1.12.683 1.832 1.848 2.864 2.624.738.584 1.671-.243 1.433-1.07 1.125.324.984 1.82 1.727 2.516.778.703 1.412-1.122 1.597.202.457.87.302 1.865-.12 2.707-.26.7-.309.828-.64 1.45-.145 1.086-.244 2.124-1.048 3-.22.314-.46.616-.714.908-.029-.802-.674-1.568-2.307-2.169-1.804-.83-3.6-.964-5.403-.897-.252-.358-.494-.72-.595-1.15-.14-.65.23-1.26.582-1.774-.065.084.256-.293.323-.383.923-1.151 1.632-2.564 1.652-4.063.575-.423.282-1.855.649-1.9zm-28.041.551c.304-.025.602.012 1.125.236 1.062.455 1.612 1.015 2.487 2.154.614 1.04 1.306 2.495 1.731 2.983.425.488.666 1.442.698 1.537.46 1.872.118 3.23-.326 4.725-2.371.67-4.305 2.197-6.208 3.753-.164-.2-.286-.465-.381-.683-.242-.555-.468-1.125-.593-1.716-.255-1.199.318-2.42.266-3.63-.053-1.218-.943-2.389-1.85-3.112-.908-.724-1.755-2.75-2.335-3.761 1.076-.295 5.062 1.223 5.988 2.251.578-1.355-1.179-3.068-1.767-4.599.55-.025.86-.113 1.165-.138zm-9.409 4.435c.647.031 3.285.713 4.125 1.1.84.387 1.631 1.75 2.056 2.205.447.477.918 1.062.908 1.707-.02 1.304-.582 2.646-.183 3.919.292.932.561 1.916 1.172 2.7-1.081.878-2.033 2.083-3.345 2.396-2.987.714-6.473 1-9.56.753.362-.741.945-2.41.913-3.245-.032-.832-.433-1.582-.734-2.351-.442-1.134.031-2.18.351-3.192.425-.902-.316-2.045-1.142-3.887 1.722.176 4.76 1.65 7.09 1.9-.133-.948-.869-2.947-1.65-4.005zm-8.979 3.945c.759.997 2.755 1.76 3.583 1.913-.276.844-.557 1.688-.517 2.586.024.542.188 1.074.464 1.543.598 1.02.371 2.193.1 3.1-.244.845-1.185 1.12-1.746 1.506-2.14.12-3.841-.487-5.562-1.133-2.31-.868-4.46-1.235-7.498-1.865-1.25-.26-3.502-1.51-2.864-3.015.236-.555 2.828.335 2.852.068.084-.947.14-2.232.75-2.32.954-.138 3.06 2.047 3.853 1.858 1.101-.262 1.06-1.477 1.316-3.083 1.618.9 3.24 1.58 5.199 2.599.181-.792.368-2.305.07-3.757zm42.391 6.34c1.327-.058 2.785.5 3.83.727-.48.773-.712 1.049-.957 2.226-.596.092-2.439.302-2.786.713-1.855-.23-4.198-.17-5.64.684.274-.784.98-1.691 1.469-2.258.862-.998 2.843-2.038 4.084-2.092zm-1.556 4.786c.415.01.746.054.948.134-.13.353-.23.716-.308 1.06-.768.349-1.592.853-2.052 1.568-.238.37-.425 1.519-.219 2.201-.67.27-1.26.73-1.695 1.488-.349.61-.186 1.565-.161 2.373-1.039.615-1.338 1.356-1.487 1.684-.496 1.095-.401 2.416-.231 3.594a2.12 2.12 0 0 0-1.185.365 2.28 2.28 0 0 0-.886 1.217c-.693-.37-1.52-.613-2.294-.496-1.155.175-1.019.485-2.259 1.78-.64-1.015-2.133-1.61-3.642-1.05 1.206-2.232 1.573-5.164 3.44-7.126.875-4.016 4.295-6.268 6.469-7.51 1.498-.856 4.316-1.308 5.562-1.282zm43.68 12.007c.045.001.074.01.117.013.351.2.682.418.965.666.4.35 1.228 1.532 1.095 1.981-.436-.3-2.006-.85-3.238-1.088.05-.385.207-.803.348-1.13.087-.373.417-.448.713-.442zm-2.67 2.858c.19-.097.706.253.884.74.419.66.503 1.674.4 3.051-.518.353-1.873-.567-2.48-1.729-.08-.524.132-1.375.576-1.669.164-.108.252-.206.62-.393zm-2.578 2.724c-.152.823-.115 1.924-.376 2.477-.436-.16-1.16-1.16-1.553-1.85.085-.522.021-1.117.737-1.283.658-.152.853.384 1.192.656zM35.156 63.002c.937.082 1.721.726 2.352 1.4 1.253 1.029 3.002.783 4.401.224.757-.284 1.399-.81 2.107-1.197.584-.438 1.246.442 1.895.453 1.062.423 2.202.236 3.306.294.655-.43 1.435.085 2.197.125.054.37.361.397.525.91.083.724-.04.154-.502 1.053-.242.451-.325.955-.393 1.456-.165 1.087-.639 2.12-1.431 2.403-1.276 1.002-1.81 2.574-2.611 3.92-2.293.52-3.869 2.4-5.267 4.151-.563.532-1.947 2.18-3.39 2.21-1.629-.405-3.647.132-5.115 1.809-1.603-.545-2.695 1.081-4.31.419-.263-.106-.994.319-1.901.355-.907.036-1.565 1.963-1.701 2.808-1.16-.888-2.241.536-3.043.538-.5-.237-.98-.598-1.473-.925.511-1.457 1.904-2.468 2.987-3.565a37.762 37.762 0 0 1 4.684-3.991c2.636-1.898 4.557-3.66 7.5-5.088 1.352-.657 2.775-1.807 2.054-4.417-.287.33-.326 2.137-1.093 2.475-.818.36-1.902 1.015-2.684 1.433-2.6 1.393-4.74 3.472-7.172 5.114-2.624 1.772-5.293 3.74-6.863 6.538a7.341 7.341 0 0 0-.457.934 2.677 2.677 0 0 0-.426-.124c-.59-.115-1.336.224-1.947.432-.838-.41-.859-1.189-1.174-1.729.258-.131 1.142-.733 1.895-1.628 1.817-2.162 3.95-3.078 5.715-5.259 1.038-1.282 5.812-4.777 6.215-5.76 3.063-1.764 5.333-4.772 5.12-7.771zm-1.607.563c.853 2.122-2.626 5.123-4.723 6.83-1.31.095-3.511.138-4.794.406 1.004-1.052 2.41-1.917 3.512-2.685-1.35.11-3.954-.086-5.5.54.948-1.32 5.601-1.876 6.257-1.965-1.166-.038-3.269-.272-4.214-.644 1.291-.793 2.747-.867 4.405-.56.917-.54 1.786-.59 2.752-.048.491-.516 1.609-1.676 2.305-1.874zm62.486 27.061c1.32.222 3.484 1.581 3.919 3.596-1.464-.766-3.053-.766-3.568-.574-.791-.468-.741-2.323-.35-3.022zM72.96 94.73c.577.449 1.688 2.224 1.588 2.975-.707.226-2.647.548-3.368 1.7-1.352-.818.455-3.843 1.78-4.675zm23.644 1.875c1.12.674 1.718 1.786 1.846 3.377-1.356-1.33-2.804-.553-3.33-.855-.294-.598.32-2.373 1.484-2.522zm-3.515 2.105c.896.91 2.272 4.76 1.16 6.343-.259-.285-2.302-1.865-3.322-3.936-.406-1.206 1.404-2.392 2.162-2.407zm-12.134 1.412c.179-.015.354-.01.52.01.223.026.429.083.602.166.582.277 1.074 1.037 1.289 1.608-.359 1.202-2.29 4.087-3.081 4.935-.436-1.354-1.424-4.547-.868-6.069.432-.4 1-.604 1.538-.648z" color="#000" font-weight="400" font-family="sans-serif" overflow="visible"/><path d="M13.863 83.635c-.077-1.688.573-2.166 1.25-2.598.472 1.28 1.421 3.25.674 4.042-1.125.2-1.291-.1-1.924-1.444zm3.752-1.732c-1.147-.17-1.212-.97-1.347-2.405 0-.994-1.162-3.18.193-4.042 1.116-.023 1.213 2.077 1.828 2.79.716.831 1.443 1.925 1.443 1.925-.042 1.24-.791 1.775-2.117 1.732zm21.651-17.705c-.201 1.012-.203 2.298 1.058 3.176.864-1.202 1.448-2.56 1.347-3.368zm-4.716-1.924c-.168 1.649.138 3.034 1.252 3.656.684-.798.743-2.03.673-3.079zm-20.495-1.251c-.055 1.832.23 2.246 1.059 3.56.912-.873 2.124-1.483 1.25-3.271-1.09-.38-2.309-.29-2.309-.29zm4.138 1.636c.037 1.085.621 2.297 1.54 3.271.428-.946 1.248-1.184 1.25-2.983-.93-1.046-1.86-.433-2.79-.288zm9.718-.385c-.35 1.998.069 4.639.963 4.907.855-.039 1.454-2.687 2.598-6.062-1.021-.593-3.673.675-3.56 1.155zm-16.839-3.079c-1.18 1.475-1.755 4.586.193 5.87.595.27 1.051-3.73 1.732-4.908zM16.46 86.33c-.051-.898-.103-1.797 1.348-2.695 1.076 1.528 1.36 2.738 1.155 3.753-.642.101-1.86.709-2.502-1.058zm3.85 1.25c-.234-.83.12-2.03 1.154-3.367 1.584 1.232 1.972 2.113 1.54 3.849-.883.427-2.067.462-2.694-.481zm4.33-.096c-.577-.922-.135-2.099.288-3.271 1.066.583 1.915 1.31 2.214 2.405-.44.683-.817 1.43-2.502.866zm18.956-24.633c.27 1.34.432 2.379 1.347 3.56 1.023-1.09 1.287-1.892.77-3.368zm4.234.481c-.346 1.478.554 2.659.866 3.08 1.686-.893 1.4-1.717 1.443-3.08zm-12.317 20.4c-.475-.455-.893-.924.096-2.598 1.61.081 1.933 1.02 2.02 2.116-.705.507-1.41.743-2.116.482zm-8.083.192c-.479-.85-1.419-3.78.096-5.1 1.247.429 1.554 2.613 2.316 3.443.541.588 1.5 1.509 1.34 1.946-.208.574-.017 1.016-1.442 1.347-1.05.373-1.611-.35-2.31-1.636zm-4.947-20.865c.037 1.085.332 1.816 1.154 3.175 1.391-.754 1.634-1.088 1.636-2.887-.93-1.047-1.86-.433-2.79-.288zM41.48 81.938c-.549-.362-2.104-2.48-1.432-4.305 1.598-.21 3.144 2.388 3.427 3.45-.602.626-1.254.985-1.995.855zm4.618-2.6c-.574-.32-1.097-.669-.562-2.539 1.578-.327 2.128.5 2.49 1.539-.556.668-1.179 1.074-1.928 1zm3.69-2.984c-.616-.23-1.185-.497-.936-2.425 1.512-.56 2.179.175 2.692 1.148-.45.744-1.005 1.239-1.756 1.277zm2.97-4.318c-.628-.196-1.211-.43-1.07-2.37 1.477-.643 2.185.054 2.751.997-.406.768-.933 1.293-1.681 1.373zm-31.126 6.658c-.566-.333-1.081-.694-.503-2.55 1.585-.291 2.116.548 2.453 1.595-.57.655-1.203 1.047-1.95.955zm3.874-3.36c-.572-.323-1.96-2.021-1.414-3.888 1.58-.318 2.991 1.86 3.347 2.9-.56.665-1.185 1.068-1.933.988zm3.771-2.976c-.576-.316-1.102-.66-.58-2.534 1.575-.339 2.13.484 2.5 1.52-.55.673-1.17 1.083-1.92 1.014zm3.65-3.37c-.574-.319-1.099-.665-.57-2.537 1.578-.332 2.13.494 2.495 1.531-.553.67-1.176 1.078-1.925 1.006z" stroke-width="1.089" fill="#fff" stroke="#000"/></g></svg>